M48
;DRILL file {kicad (2015-04-22 BZR 5620)-product} date 28/04/2015 22:05:03
;FORMAT={3:3/ absolute / metric / keep zeros}
FMAT,2
METRIC,TZ
T1C0.635
T2C1.016
%
G90
G05
M71
T1
X186436Y-102235
X186944Y-108712
X189738Y-118491
X192913Y-103505
X192913Y-108077
X193802Y-105791
X195326Y-101981
X195326Y-103505
X196215Y-108331
X196342Y-106553
X200343Y-103632
X201676Y-100457
X202438Y-123952
X207137Y-121539
X207645Y-104267
X208407Y-121158
X210312Y-121793
X217678Y-116078
X229108Y-109093
T2
X202565Y-103632
X202565Y-106172
X202565Y-108712
X202565Y-111252
X202565Y-113792
X202565Y-116332
X207010Y-106807
X207010Y-109347
X207010Y-111887
X207010Y-114427
X209550Y-106807
X209550Y-109347
X209550Y-111887
X209550Y-114427
X213995Y-103632
X213995Y-106172
X213995Y-108712
X213995Y-111252
X213995Y-113792
X213995Y-116332
X220218Y-116840
X222758Y-116840
X225298Y-116840
T0
M30
