G04 #@! TF.FileFunction,Legend,Top*
%FSLAX46Y46*%
G04 Gerber Fmt 4.6, Leading zero omitted, Abs format (unit mm)*
G04 Created by KiCad (PCBNEW (2015-04-22 BZR 5620)-product) date 28/04/2015 22:04:39*
%MOMM*%
G01*
G04 APERTURE LIST*
%ADD10C,0.100000*%
%ADD11C,0.125000*%
%ADD12C,0.200000*%
%ADD13C,0.127000*%
%ADD14C,0.175000*%
%ADD15C,0.400000*%
%ADD16C,0.150000*%
%ADD17C,0.300000*%
%ADD18C,0.250000*%
G04 APERTURE END LIST*
D10*
D11*
X212815714Y-126691571D02*
X213432571Y-126691571D01*
X213505143Y-126655286D01*
X213541429Y-126619000D01*
X213577714Y-126546429D01*
X213577714Y-126401286D01*
X213541429Y-126328714D01*
X213505143Y-126292429D01*
X213432571Y-126256143D01*
X212815714Y-126256143D01*
X213541429Y-125929571D02*
X213577714Y-125820714D01*
X213577714Y-125639285D01*
X213541429Y-125566714D01*
X213505143Y-125530428D01*
X213432571Y-125494143D01*
X213360000Y-125494143D01*
X213287429Y-125530428D01*
X213251143Y-125566714D01*
X213214857Y-125639285D01*
X213178571Y-125784428D01*
X213142286Y-125857000D01*
X213106000Y-125893285D01*
X213033429Y-125929571D01*
X212960857Y-125929571D01*
X212888286Y-125893285D01*
X212852000Y-125857000D01*
X212815714Y-125784428D01*
X212815714Y-125603000D01*
X212852000Y-125494143D01*
X213178571Y-124913571D02*
X213214857Y-124804714D01*
X213251143Y-124768429D01*
X213323714Y-124732143D01*
X213432571Y-124732143D01*
X213505143Y-124768429D01*
X213541429Y-124804714D01*
X213577714Y-124877286D01*
X213577714Y-125167571D01*
X212815714Y-125167571D01*
X212815714Y-124913571D01*
X212852000Y-124841000D01*
X212888286Y-124804714D01*
X212960857Y-124768429D01*
X213033429Y-124768429D01*
X213106000Y-124804714D01*
X213142286Y-124841000D01*
X213178571Y-124913571D01*
X213178571Y-125167571D01*
D12*
X205232000Y-120586500D02*
X205232000Y-116332000D01*
X211264500Y-120586500D02*
X205232000Y-120586500D01*
X211264500Y-116332000D02*
X211264500Y-120586500D01*
X205232000Y-116332000D02*
X211264500Y-116332000D01*
D11*
X206313333Y-119665000D02*
X206246667Y-119631667D01*
X206146667Y-119631667D01*
X206046667Y-119665000D01*
X205980000Y-119731667D01*
X205946667Y-119798333D01*
X205913333Y-119931667D01*
X205913333Y-120031667D01*
X205946667Y-120165000D01*
X205980000Y-120231667D01*
X206046667Y-120298333D01*
X206146667Y-120331667D01*
X206213333Y-120331667D01*
X206313333Y-120298333D01*
X206346667Y-120265000D01*
X206346667Y-120031667D01*
X206213333Y-120031667D01*
X206646667Y-120331667D02*
X206646667Y-119631667D01*
X206913333Y-119631667D01*
X206980000Y-119665000D01*
X207013333Y-119698333D01*
X207046667Y-119765000D01*
X207046667Y-119865000D01*
X207013333Y-119931667D01*
X206980000Y-119965000D01*
X206913333Y-119998333D01*
X206646667Y-119998333D01*
X207313333Y-119698333D02*
X207346667Y-119665000D01*
X207413333Y-119631667D01*
X207580000Y-119631667D01*
X207646667Y-119665000D01*
X207680000Y-119698333D01*
X207713333Y-119765000D01*
X207713333Y-119831667D01*
X207680000Y-119931667D01*
X207280000Y-120331667D01*
X207713333Y-120331667D01*
X208013334Y-120065000D02*
X208546667Y-120065000D01*
X208846667Y-120298333D02*
X208946667Y-120331667D01*
X209113334Y-120331667D01*
X209180001Y-120298333D01*
X209213334Y-120265000D01*
X209246667Y-120198333D01*
X209246667Y-120131667D01*
X209213334Y-120065000D01*
X209180001Y-120031667D01*
X209113334Y-119998333D01*
X208980001Y-119965000D01*
X208913334Y-119931667D01*
X208880001Y-119898333D01*
X208846667Y-119831667D01*
X208846667Y-119765000D01*
X208880001Y-119698333D01*
X208913334Y-119665000D01*
X208980001Y-119631667D01*
X209146667Y-119631667D01*
X209246667Y-119665000D01*
X209946668Y-120265000D02*
X209913334Y-120298333D01*
X209813334Y-120331667D01*
X209746668Y-120331667D01*
X209646668Y-120298333D01*
X209580001Y-120231667D01*
X209546668Y-120165000D01*
X209513334Y-120031667D01*
X209513334Y-119931667D01*
X209546668Y-119798333D01*
X209580001Y-119731667D01*
X209646668Y-119665000D01*
X209746668Y-119631667D01*
X209813334Y-119631667D01*
X209913334Y-119665000D01*
X209946668Y-119698333D01*
X210246668Y-120331667D02*
X210246668Y-119631667D01*
X210646668Y-120331667D02*
X210346668Y-119931667D01*
X210646668Y-119631667D02*
X210246668Y-120031667D01*
X206346666Y-118649000D02*
X206280000Y-118615667D01*
X206180000Y-118615667D01*
X206080000Y-118649000D01*
X206013333Y-118715667D01*
X205980000Y-118782333D01*
X205946666Y-118915667D01*
X205946666Y-119015667D01*
X205980000Y-119149000D01*
X206013333Y-119215667D01*
X206080000Y-119282333D01*
X206180000Y-119315667D01*
X206246666Y-119315667D01*
X206346666Y-119282333D01*
X206380000Y-119249000D01*
X206380000Y-119015667D01*
X206246666Y-119015667D01*
X206680000Y-119315667D02*
X206680000Y-118615667D01*
X206946666Y-118615667D01*
X207013333Y-118649000D01*
X207046666Y-118682333D01*
X207080000Y-118749000D01*
X207080000Y-118849000D01*
X207046666Y-118915667D01*
X207013333Y-118949000D01*
X206946666Y-118982333D01*
X206680000Y-118982333D01*
X207746666Y-119315667D02*
X207346666Y-119315667D01*
X207546666Y-119315667D02*
X207546666Y-118615667D01*
X207480000Y-118715667D01*
X207413333Y-118782333D01*
X207346666Y-118815667D01*
X208046667Y-119049000D02*
X208580000Y-119049000D01*
X208880000Y-119282333D02*
X208980000Y-119315667D01*
X209146667Y-119315667D01*
X209213334Y-119282333D01*
X209246667Y-119249000D01*
X209280000Y-119182333D01*
X209280000Y-119115667D01*
X209246667Y-119049000D01*
X209213334Y-119015667D01*
X209146667Y-118982333D01*
X209013334Y-118949000D01*
X208946667Y-118915667D01*
X208913334Y-118882333D01*
X208880000Y-118815667D01*
X208880000Y-118749000D01*
X208913334Y-118682333D01*
X208946667Y-118649000D01*
X209013334Y-118615667D01*
X209180000Y-118615667D01*
X209280000Y-118649000D01*
X209546667Y-119282333D02*
X209646667Y-119315667D01*
X209813334Y-119315667D01*
X209880001Y-119282333D01*
X209913334Y-119249000D01*
X209946667Y-119182333D01*
X209946667Y-119115667D01*
X209913334Y-119049000D01*
X209880001Y-119015667D01*
X209813334Y-118982333D01*
X209680001Y-118949000D01*
X209613334Y-118915667D01*
X209580001Y-118882333D01*
X209546667Y-118815667D01*
X209546667Y-118749000D01*
X209580001Y-118682333D01*
X209613334Y-118649000D01*
X209680001Y-118615667D01*
X209846667Y-118615667D01*
X209946667Y-118649000D01*
X210213334Y-118682333D02*
X210246668Y-118649000D01*
X210313334Y-118615667D01*
X210480001Y-118615667D01*
X210546668Y-118649000D01*
X210580001Y-118682333D01*
X210613334Y-118749000D01*
X210613334Y-118815667D01*
X210580001Y-118915667D01*
X210180001Y-119315667D01*
X210613334Y-119315667D01*
X206346666Y-117633000D02*
X206280000Y-117599667D01*
X206180000Y-117599667D01*
X206080000Y-117633000D01*
X206013333Y-117699667D01*
X205980000Y-117766333D01*
X205946666Y-117899667D01*
X205946666Y-117999667D01*
X205980000Y-118133000D01*
X206013333Y-118199667D01*
X206080000Y-118266333D01*
X206180000Y-118299667D01*
X206246666Y-118299667D01*
X206346666Y-118266333D01*
X206380000Y-118233000D01*
X206380000Y-117999667D01*
X206246666Y-117999667D01*
X206680000Y-118299667D02*
X206680000Y-117599667D01*
X206946666Y-117599667D01*
X207013333Y-117633000D01*
X207046666Y-117666333D01*
X207080000Y-117733000D01*
X207080000Y-117833000D01*
X207046666Y-117899667D01*
X207013333Y-117933000D01*
X206946666Y-117966333D01*
X206680000Y-117966333D01*
X207513333Y-117599667D02*
X207580000Y-117599667D01*
X207646666Y-117633000D01*
X207680000Y-117666333D01*
X207713333Y-117733000D01*
X207746666Y-117866333D01*
X207746666Y-118033000D01*
X207713333Y-118166333D01*
X207680000Y-118233000D01*
X207646666Y-118266333D01*
X207580000Y-118299667D01*
X207513333Y-118299667D01*
X207446666Y-118266333D01*
X207413333Y-118233000D01*
X207380000Y-118166333D01*
X207346666Y-118033000D01*
X207346666Y-117866333D01*
X207380000Y-117733000D01*
X207413333Y-117666333D01*
X207446666Y-117633000D01*
X207513333Y-117599667D01*
X208046667Y-118033000D02*
X208580000Y-118033000D01*
X208880000Y-118266333D02*
X208980000Y-118299667D01*
X209146667Y-118299667D01*
X209213334Y-118266333D01*
X209246667Y-118233000D01*
X209280000Y-118166333D01*
X209280000Y-118099667D01*
X209246667Y-118033000D01*
X209213334Y-117999667D01*
X209146667Y-117966333D01*
X209013334Y-117933000D01*
X208946667Y-117899667D01*
X208913334Y-117866333D01*
X208880000Y-117799667D01*
X208880000Y-117733000D01*
X208913334Y-117666333D01*
X208946667Y-117633000D01*
X209013334Y-117599667D01*
X209180000Y-117599667D01*
X209280000Y-117633000D01*
X209546667Y-118266333D02*
X209646667Y-118299667D01*
X209813334Y-118299667D01*
X209880001Y-118266333D01*
X209913334Y-118233000D01*
X209946667Y-118166333D01*
X209946667Y-118099667D01*
X209913334Y-118033000D01*
X209880001Y-117999667D01*
X209813334Y-117966333D01*
X209680001Y-117933000D01*
X209613334Y-117899667D01*
X209580001Y-117866333D01*
X209546667Y-117799667D01*
X209546667Y-117733000D01*
X209580001Y-117666333D01*
X209613334Y-117633000D01*
X209680001Y-117599667D01*
X209846667Y-117599667D01*
X209946667Y-117633000D01*
X210613334Y-118299667D02*
X210213334Y-118299667D01*
X210413334Y-118299667D02*
X210413334Y-117599667D01*
X210346668Y-117699667D01*
X210280001Y-117766333D01*
X210213334Y-117799667D01*
X206513334Y-117217000D02*
X206480000Y-117250333D01*
X206380000Y-117283667D01*
X206313334Y-117283667D01*
X206213334Y-117250333D01*
X206146667Y-117183667D01*
X206113334Y-117117000D01*
X206080000Y-116983667D01*
X206080000Y-116883667D01*
X206113334Y-116750333D01*
X206146667Y-116683667D01*
X206213334Y-116617000D01*
X206313334Y-116583667D01*
X206380000Y-116583667D01*
X206480000Y-116617000D01*
X206513334Y-116650333D01*
X206713334Y-116583667D02*
X207113334Y-116583667D01*
X206913334Y-117283667D02*
X206913334Y-116583667D01*
X207313333Y-117250333D02*
X207413333Y-117283667D01*
X207580000Y-117283667D01*
X207646667Y-117250333D01*
X207680000Y-117217000D01*
X207713333Y-117150333D01*
X207713333Y-117083667D01*
X207680000Y-117017000D01*
X207646667Y-116983667D01*
X207580000Y-116950333D01*
X207446667Y-116917000D01*
X207380000Y-116883667D01*
X207346667Y-116850333D01*
X207313333Y-116783667D01*
X207313333Y-116717000D01*
X207346667Y-116650333D01*
X207380000Y-116617000D01*
X207446667Y-116583667D01*
X207613333Y-116583667D01*
X207713333Y-116617000D01*
X208013334Y-117017000D02*
X208546667Y-117017000D01*
X209280001Y-117283667D02*
X209046667Y-116950333D01*
X208880001Y-117283667D02*
X208880001Y-116583667D01*
X209146667Y-116583667D01*
X209213334Y-116617000D01*
X209246667Y-116650333D01*
X209280001Y-116717000D01*
X209280001Y-116817000D01*
X209246667Y-116883667D01*
X209213334Y-116917000D01*
X209146667Y-116950333D01*
X208880001Y-116950333D01*
X209546667Y-117250333D02*
X209646667Y-117283667D01*
X209813334Y-117283667D01*
X209880001Y-117250333D01*
X209913334Y-117217000D01*
X209946667Y-117150333D01*
X209946667Y-117083667D01*
X209913334Y-117017000D01*
X209880001Y-116983667D01*
X209813334Y-116950333D01*
X209680001Y-116917000D01*
X209613334Y-116883667D01*
X209580001Y-116850333D01*
X209546667Y-116783667D01*
X209546667Y-116717000D01*
X209580001Y-116650333D01*
X209613334Y-116617000D01*
X209680001Y-116583667D01*
X209846667Y-116583667D01*
X209946667Y-116617000D01*
X210146668Y-116583667D02*
X210546668Y-116583667D01*
X210346668Y-117283667D02*
X210346668Y-116583667D01*
D12*
X224472524Y-118705381D02*
X223996333Y-118705381D01*
X223948714Y-119181571D01*
X223996333Y-119133952D01*
X224091571Y-119086333D01*
X224329667Y-119086333D01*
X224424905Y-119133952D01*
X224472524Y-119181571D01*
X224520143Y-119276810D01*
X224520143Y-119514905D01*
X224472524Y-119610143D01*
X224424905Y-119657762D01*
X224329667Y-119705381D01*
X224091571Y-119705381D01*
X223996333Y-119657762D01*
X223948714Y-119610143D01*
X224805857Y-118705381D02*
X225139190Y-119705381D01*
X225472524Y-118705381D01*
X219233905Y-118705381D02*
X219852953Y-118705381D01*
X219519619Y-119086333D01*
X219662477Y-119086333D01*
X219757715Y-119133952D01*
X219805334Y-119181571D01*
X219852953Y-119276810D01*
X219852953Y-119514905D01*
X219805334Y-119610143D01*
X219757715Y-119657762D01*
X219662477Y-119705381D01*
X219376762Y-119705381D01*
X219281524Y-119657762D01*
X219233905Y-119610143D01*
X220138667Y-118705381D02*
X220472000Y-119705381D01*
X220805334Y-118705381D01*
X221043429Y-118705381D02*
X221662477Y-118705381D01*
X221329143Y-119086333D01*
X221472001Y-119086333D01*
X221567239Y-119133952D01*
X221614858Y-119181571D01*
X221662477Y-119276810D01*
X221662477Y-119514905D01*
X221614858Y-119610143D01*
X221567239Y-119657762D01*
X221472001Y-119705381D01*
X221186286Y-119705381D01*
X221091048Y-119657762D01*
X221043429Y-119610143D01*
X222250000Y-101981000D02*
X230886000Y-101981000D01*
D13*
X220068143Y-104237786D02*
X220207000Y-104723786D01*
X220345857Y-104376643D01*
X220484714Y-104723786D01*
X220623571Y-104237786D01*
X220831857Y-104237786D02*
X220970714Y-104723786D01*
X221109571Y-104376643D01*
X221248428Y-104723786D01*
X221387285Y-104237786D01*
X221595571Y-104237786D02*
X221734428Y-104723786D01*
X221873285Y-104376643D01*
X222012142Y-104723786D01*
X222150999Y-104237786D01*
X222428713Y-104654357D02*
X222463428Y-104689071D01*
X222428713Y-104723786D01*
X222393999Y-104689071D01*
X222428713Y-104654357D01*
X222428713Y-104723786D01*
X223088285Y-104689071D02*
X223018856Y-104723786D01*
X222879999Y-104723786D01*
X222810571Y-104689071D01*
X222775856Y-104654357D01*
X222741142Y-104584929D01*
X222741142Y-104376643D01*
X222775856Y-104307214D01*
X222810571Y-104272500D01*
X222879999Y-104237786D01*
X223018856Y-104237786D01*
X223088285Y-104272500D01*
X223400713Y-104723786D02*
X223400713Y-104237786D01*
X223400713Y-104376643D02*
X223435428Y-104307214D01*
X223470142Y-104272500D01*
X223539571Y-104237786D01*
X223608999Y-104237786D01*
X224164428Y-104723786D02*
X224164428Y-104341929D01*
X224129714Y-104272500D01*
X224060285Y-104237786D01*
X223921428Y-104237786D01*
X223851999Y-104272500D01*
X224164428Y-104689071D02*
X224094999Y-104723786D01*
X223921428Y-104723786D01*
X223851999Y-104689071D01*
X223817285Y-104619643D01*
X223817285Y-104550214D01*
X223851999Y-104480786D01*
X223921428Y-104446071D01*
X224094999Y-104446071D01*
X224164428Y-104411357D01*
X224476856Y-104689071D02*
X224546285Y-104723786D01*
X224685142Y-104723786D01*
X224754570Y-104689071D01*
X224789285Y-104619643D01*
X224789285Y-104584929D01*
X224754570Y-104515500D01*
X224685142Y-104480786D01*
X224580999Y-104480786D01*
X224511570Y-104446071D01*
X224476856Y-104376643D01*
X224476856Y-104341929D01*
X224511570Y-104272500D01*
X224580999Y-104237786D01*
X224685142Y-104237786D01*
X224754570Y-104272500D01*
X225101713Y-104723786D02*
X225101713Y-103994786D01*
X225414142Y-104723786D02*
X225414142Y-104341929D01*
X225379428Y-104272500D01*
X225309999Y-104237786D01*
X225205856Y-104237786D01*
X225136428Y-104272500D01*
X225101713Y-104307214D01*
X225761284Y-104446071D02*
X226316713Y-104446071D01*
X226663855Y-104723786D02*
X226663855Y-103994786D01*
X226663855Y-104272500D02*
X226733284Y-104237786D01*
X226872141Y-104237786D01*
X226941570Y-104272500D01*
X226976284Y-104307214D01*
X227010998Y-104376643D01*
X227010998Y-104584929D01*
X226976284Y-104654357D01*
X226941570Y-104689071D01*
X226872141Y-104723786D01*
X226733284Y-104723786D01*
X226663855Y-104689071D01*
X227635855Y-104723786D02*
X227635855Y-104341929D01*
X227601141Y-104272500D01*
X227531712Y-104237786D01*
X227392855Y-104237786D01*
X227323426Y-104272500D01*
X227635855Y-104689071D02*
X227566426Y-104723786D01*
X227392855Y-104723786D01*
X227323426Y-104689071D01*
X227288712Y-104619643D01*
X227288712Y-104550214D01*
X227323426Y-104480786D01*
X227392855Y-104446071D01*
X227566426Y-104446071D01*
X227635855Y-104411357D01*
X227982997Y-104237786D02*
X227982997Y-104723786D01*
X227982997Y-104307214D02*
X228017712Y-104272500D01*
X228087140Y-104237786D01*
X228191283Y-104237786D01*
X228260712Y-104272500D01*
X228295426Y-104341929D01*
X228295426Y-104723786D01*
X228954997Y-104237786D02*
X228954997Y-104827929D01*
X228920283Y-104897357D01*
X228885568Y-104932071D01*
X228816140Y-104966786D01*
X228711997Y-104966786D01*
X228642568Y-104932071D01*
X228954997Y-104689071D02*
X228885568Y-104723786D01*
X228746711Y-104723786D01*
X228677283Y-104689071D01*
X228642568Y-104654357D01*
X228607854Y-104584929D01*
X228607854Y-104376643D01*
X228642568Y-104307214D01*
X228677283Y-104272500D01*
X228746711Y-104237786D01*
X228885568Y-104237786D01*
X228954997Y-104272500D01*
X229302139Y-104654357D02*
X229336854Y-104689071D01*
X229302139Y-104723786D01*
X229267425Y-104689071D01*
X229302139Y-104654357D01*
X229302139Y-104723786D01*
X229961711Y-104689071D02*
X229892282Y-104723786D01*
X229753425Y-104723786D01*
X229683997Y-104689071D01*
X229649282Y-104654357D01*
X229614568Y-104584929D01*
X229614568Y-104376643D01*
X229649282Y-104307214D01*
X229683997Y-104272500D01*
X229753425Y-104237786D01*
X229892282Y-104237786D01*
X229961711Y-104272500D01*
X230378282Y-104723786D02*
X230308854Y-104689071D01*
X230274139Y-104654357D01*
X230239425Y-104584929D01*
X230239425Y-104376643D01*
X230274139Y-104307214D01*
X230308854Y-104272500D01*
X230378282Y-104237786D01*
X230482425Y-104237786D01*
X230551854Y-104272500D01*
X230586568Y-104307214D01*
X230621282Y-104376643D01*
X230621282Y-104584929D01*
X230586568Y-104654357D01*
X230551854Y-104689071D01*
X230482425Y-104723786D01*
X230378282Y-104723786D01*
X230933710Y-104723786D02*
X230933710Y-104237786D01*
X230933710Y-104307214D02*
X230968425Y-104272500D01*
X231037853Y-104237786D01*
X231141996Y-104237786D01*
X231211425Y-104272500D01*
X231246139Y-104341929D01*
X231246139Y-104723786D01*
X231246139Y-104341929D02*
X231280853Y-104272500D01*
X231350282Y-104237786D01*
X231454425Y-104237786D01*
X231523853Y-104272500D01*
X231558568Y-104341929D01*
X231558568Y-104723786D01*
D14*
X223150118Y-100290381D02*
X223048928Y-101099905D01*
X223070356Y-101195143D01*
X223097737Y-101242762D01*
X223158451Y-101290381D01*
X223291784Y-101290381D01*
X223364404Y-101242762D01*
X223403689Y-101195143D01*
X223448928Y-101099905D01*
X223550118Y-100290381D01*
X223731070Y-101242762D02*
X223825117Y-101290381D01*
X223991784Y-101290381D01*
X224064404Y-101242762D01*
X224103689Y-101195143D01*
X224148927Y-101099905D01*
X224160832Y-101004667D01*
X224139403Y-100909429D01*
X224112023Y-100861810D01*
X224051308Y-100814190D01*
X223923928Y-100766571D01*
X223863213Y-100718952D01*
X223835832Y-100671333D01*
X223814403Y-100576095D01*
X223826308Y-100480857D01*
X223871547Y-100385619D01*
X223910832Y-100338000D01*
X223983451Y-100290381D01*
X224150117Y-100290381D01*
X224244165Y-100338000D01*
X224723928Y-100766571D02*
X224817975Y-100814190D01*
X224845356Y-100861810D01*
X224866785Y-100957048D01*
X224848928Y-101099905D01*
X224803689Y-101195143D01*
X224764404Y-101242762D01*
X224691784Y-101290381D01*
X224425118Y-101290381D01*
X224550118Y-100290381D01*
X224783451Y-100290381D01*
X224844166Y-100338000D01*
X224871547Y-100385619D01*
X224892975Y-100480857D01*
X224881070Y-100576095D01*
X224835832Y-100671333D01*
X224796547Y-100718952D01*
X224723928Y-100766571D01*
X224490595Y-100766571D01*
X225172737Y-100909429D02*
X225706070Y-100909429D01*
X226116785Y-100290381D02*
X226015595Y-101099905D01*
X226037023Y-101195143D01*
X226064404Y-101242762D01*
X226125118Y-101290381D01*
X226258451Y-101290381D01*
X226331071Y-101242762D01*
X226370356Y-101195143D01*
X226415595Y-101099905D01*
X226516785Y-100290381D01*
X226727499Y-101004667D02*
X227060833Y-101004667D01*
X226625118Y-101290381D02*
X226983451Y-100290381D01*
X227091784Y-101290381D01*
X227725118Y-101290381D02*
X227551308Y-100814190D01*
X227325118Y-101290381D02*
X227450118Y-100290381D01*
X227716784Y-100290381D01*
X227777499Y-100338000D01*
X227804880Y-100385619D01*
X227826309Y-100480857D01*
X227808452Y-100623714D01*
X227763213Y-100718952D01*
X227723928Y-100766571D01*
X227651308Y-100814190D01*
X227384642Y-100814190D01*
X228050118Y-100290381D02*
X228450118Y-100290381D01*
X228125118Y-101290381D02*
X228250118Y-100290381D01*
X228638213Y-100385619D02*
X228677499Y-100338000D01*
X228750117Y-100290381D01*
X228916784Y-100290381D01*
X228977499Y-100338000D01*
X229004880Y-100385619D01*
X229026308Y-100480857D01*
X229014403Y-100576095D01*
X228963213Y-100718952D01*
X228491784Y-101290381D01*
X228925117Y-101290381D01*
X229304880Y-100385619D02*
X229344166Y-100338000D01*
X229416784Y-100290381D01*
X229583451Y-100290381D01*
X229644166Y-100338000D01*
X229671547Y-100385619D01*
X229692975Y-100480857D01*
X229681070Y-100576095D01*
X229629880Y-100718952D01*
X229158451Y-101290381D01*
X229591784Y-101290381D01*
X230150118Y-100290381D02*
X230216785Y-100290381D01*
X230277499Y-100338000D01*
X230304881Y-100385619D01*
X230326309Y-100480857D01*
X230335832Y-100671333D01*
X230306070Y-100909429D01*
X230248928Y-101099905D01*
X230203690Y-101195143D01*
X230164404Y-101242762D01*
X230091785Y-101290381D01*
X230025118Y-101290381D01*
X229964404Y-101242762D01*
X229937023Y-101195143D01*
X229915595Y-101099905D01*
X229906070Y-100909429D01*
X229935832Y-100671333D01*
X229992976Y-100480857D01*
X230038214Y-100385619D01*
X230077499Y-100338000D01*
X230150118Y-100290381D01*
X230816785Y-100290381D02*
X230883452Y-100290381D01*
X230944166Y-100338000D01*
X230971548Y-100385619D01*
X230992976Y-100480857D01*
X231002499Y-100671333D01*
X230972737Y-100909429D01*
X230915595Y-101099905D01*
X230870357Y-101195143D01*
X230831071Y-101242762D01*
X230758452Y-101290381D01*
X230691785Y-101290381D01*
X230631071Y-101242762D01*
X230603690Y-101195143D01*
X230582262Y-101099905D01*
X230572737Y-100909429D01*
X230602499Y-100671333D01*
X230659643Y-100480857D01*
X230704881Y-100385619D01*
X230744166Y-100338000D01*
X230816785Y-100290381D01*
D10*
X220844000Y-101292000D02*
X220844000Y-101092000D01*
X220844000Y-101092000D02*
X221044000Y-101092000D01*
X221044000Y-101092000D02*
X221044000Y-101292000D01*
X221044000Y-101292000D02*
X220844000Y-101292000D01*
X220844000Y-101792000D02*
X220844000Y-101592000D01*
X220844000Y-101592000D02*
X221044000Y-101592000D01*
X221044000Y-101592000D02*
X221044000Y-101792000D01*
X221044000Y-101792000D02*
X220844000Y-101792000D01*
X220844000Y-102292000D02*
X220844000Y-102092000D01*
X220844000Y-102092000D02*
X221044000Y-102092000D01*
X221044000Y-102092000D02*
X221044000Y-102292000D01*
X221044000Y-102292000D02*
X220844000Y-102292000D01*
D15*
X220044000Y-103392000D02*
X220944000Y-103392000D01*
X220944000Y-103392000D02*
X220944000Y-102692000D01*
X220044000Y-100992000D02*
X220044000Y-103392000D01*
X218744000Y-100992000D02*
X220044000Y-100992000D01*
X222144000Y-100892000D02*
G75*
G03X218744000Y-100892000I-1700000J0D01*
G01*
D16*
X201295000Y-102412000D02*
X201295000Y-117602000D01*
X201295000Y-117602000D02*
X203835000Y-117602000D01*
X203835000Y-117602000D02*
X203835000Y-102412000D01*
X201295000Y-102402000D02*
X203835000Y-102402000D01*
X212725000Y-102412000D02*
X212725000Y-117602000D01*
X212725000Y-117602000D02*
X215265000Y-117602000D01*
X215265000Y-117602000D02*
X215265000Y-102412000D01*
X212725000Y-102402000D02*
X215265000Y-102402000D01*
X227369000Y-111768000D02*
X227369000Y-112768000D01*
X229069000Y-112768000D02*
X229069000Y-111768000D01*
X218528000Y-112641000D02*
X218528000Y-111641000D01*
X216828000Y-111641000D02*
X216828000Y-112641000D01*
X187952000Y-99607000D02*
X186952000Y-99607000D01*
X186952000Y-101307000D02*
X187952000Y-101307000D01*
X198001000Y-101180000D02*
X199001000Y-101180000D01*
X199001000Y-99480000D02*
X198001000Y-99480000D01*
D12*
X191163000Y-120126000D02*
X191413000Y-120126000D01*
X191413000Y-120126000D02*
X191413000Y-120376000D01*
X191413000Y-120376000D02*
X191163000Y-120376000D01*
X191163000Y-120376000D02*
X191163000Y-120126000D01*
D16*
X193410840Y-119425720D02*
X193410840Y-119750840D01*
X193410840Y-119750840D02*
X193911220Y-119750840D01*
X193911220Y-119425720D02*
X193911220Y-119750840D01*
X193410840Y-119425720D02*
X193911220Y-119425720D01*
X193410840Y-118803420D02*
X193410840Y-118953280D01*
X193410840Y-118953280D02*
X193662300Y-118953280D01*
X193662300Y-118803420D02*
X193662300Y-118953280D01*
X193410840Y-118803420D02*
X193662300Y-118803420D01*
X193410840Y-119298720D02*
X193410840Y-119448580D01*
X193410840Y-119448580D02*
X193662300Y-119448580D01*
X193662300Y-119298720D02*
X193662300Y-119448580D01*
X193410840Y-119298720D02*
X193662300Y-119298720D01*
X193410840Y-118927880D02*
X193410840Y-119324120D01*
X193410840Y-119324120D02*
X193586100Y-119324120D01*
X193586100Y-118927880D02*
X193586100Y-119324120D01*
X193410840Y-118927880D02*
X193586100Y-118927880D01*
X191914780Y-119425720D02*
X191914780Y-119750840D01*
X191914780Y-119750840D02*
X192415160Y-119750840D01*
X192415160Y-119425720D02*
X192415160Y-119750840D01*
X191914780Y-119425720D02*
X192415160Y-119425720D01*
X191914780Y-118501160D02*
X191914780Y-118826280D01*
X191914780Y-118826280D02*
X192415160Y-118826280D01*
X192415160Y-118501160D02*
X192415160Y-118826280D01*
X191914780Y-118501160D02*
X192415160Y-118501160D01*
X192163700Y-119298720D02*
X192163700Y-119448580D01*
X192163700Y-119448580D02*
X192415160Y-119448580D01*
X192415160Y-119298720D02*
X192415160Y-119448580D01*
X192163700Y-119298720D02*
X192415160Y-119298720D01*
X192163700Y-118803420D02*
X192163700Y-118953280D01*
X192163700Y-118953280D02*
X192415160Y-118953280D01*
X192415160Y-118803420D02*
X192415160Y-118953280D01*
X192163700Y-118803420D02*
X192415160Y-118803420D01*
X192239900Y-118927880D02*
X192239900Y-119324120D01*
X192239900Y-119324120D02*
X192415160Y-119324120D01*
X192415160Y-118927880D02*
X192415160Y-119324120D01*
X192239900Y-118927880D02*
X192415160Y-118927880D01*
X192663000Y-119026940D02*
X192663000Y-119225060D01*
X192663000Y-119225060D02*
X192861120Y-119225060D01*
X192861120Y-119026940D02*
X192861120Y-119225060D01*
X192663000Y-119026940D02*
X192861120Y-119026940D01*
X193410840Y-118526560D02*
X193410840Y-118826280D01*
X193410840Y-118826280D02*
X193710560Y-118826280D01*
X193710560Y-118526560D02*
X193710560Y-118826280D01*
X193410840Y-118526560D02*
X193710560Y-118526560D01*
X193837560Y-118501160D02*
X193837560Y-118727220D01*
X193837560Y-118727220D02*
X193911220Y-118727220D01*
X193911220Y-118501160D02*
X193911220Y-118727220D01*
X193837560Y-118501160D02*
X193911220Y-118501160D01*
X193436240Y-119700040D02*
X192389760Y-119700040D01*
X192415160Y-118551960D02*
X193837560Y-118551960D01*
X193833202Y-118676420D02*
G75*
G03X193833202Y-118676420I-71842J0D01*
G01*
X193911220Y-118778020D02*
G75*
G03X193911220Y-119473980I0J-347980D01*
G01*
X191914780Y-119473980D02*
G75*
G03X191914780Y-118778020I0J347980D01*
G01*
D12*
X191163000Y-117967000D02*
X191413000Y-117967000D01*
X191413000Y-117967000D02*
X191413000Y-118217000D01*
X191413000Y-118217000D02*
X191163000Y-118217000D01*
X191163000Y-118217000D02*
X191163000Y-117967000D01*
D16*
X193410840Y-117266720D02*
X193410840Y-117591840D01*
X193410840Y-117591840D02*
X193911220Y-117591840D01*
X193911220Y-117266720D02*
X193911220Y-117591840D01*
X193410840Y-117266720D02*
X193911220Y-117266720D01*
X193410840Y-116644420D02*
X193410840Y-116794280D01*
X193410840Y-116794280D02*
X193662300Y-116794280D01*
X193662300Y-116644420D02*
X193662300Y-116794280D01*
X193410840Y-116644420D02*
X193662300Y-116644420D01*
X193410840Y-117139720D02*
X193410840Y-117289580D01*
X193410840Y-117289580D02*
X193662300Y-117289580D01*
X193662300Y-117139720D02*
X193662300Y-117289580D01*
X193410840Y-117139720D02*
X193662300Y-117139720D01*
X193410840Y-116768880D02*
X193410840Y-117165120D01*
X193410840Y-117165120D02*
X193586100Y-117165120D01*
X193586100Y-116768880D02*
X193586100Y-117165120D01*
X193410840Y-116768880D02*
X193586100Y-116768880D01*
X191914780Y-117266720D02*
X191914780Y-117591840D01*
X191914780Y-117591840D02*
X192415160Y-117591840D01*
X192415160Y-117266720D02*
X192415160Y-117591840D01*
X191914780Y-117266720D02*
X192415160Y-117266720D01*
X191914780Y-116342160D02*
X191914780Y-116667280D01*
X191914780Y-116667280D02*
X192415160Y-116667280D01*
X192415160Y-116342160D02*
X192415160Y-116667280D01*
X191914780Y-116342160D02*
X192415160Y-116342160D01*
X192163700Y-117139720D02*
X192163700Y-117289580D01*
X192163700Y-117289580D02*
X192415160Y-117289580D01*
X192415160Y-117139720D02*
X192415160Y-117289580D01*
X192163700Y-117139720D02*
X192415160Y-117139720D01*
X192163700Y-116644420D02*
X192163700Y-116794280D01*
X192163700Y-116794280D02*
X192415160Y-116794280D01*
X192415160Y-116644420D02*
X192415160Y-116794280D01*
X192163700Y-116644420D02*
X192415160Y-116644420D01*
X192239900Y-116768880D02*
X192239900Y-117165120D01*
X192239900Y-117165120D02*
X192415160Y-117165120D01*
X192415160Y-116768880D02*
X192415160Y-117165120D01*
X192239900Y-116768880D02*
X192415160Y-116768880D01*
X192663000Y-116867940D02*
X192663000Y-117066060D01*
X192663000Y-117066060D02*
X192861120Y-117066060D01*
X192861120Y-116867940D02*
X192861120Y-117066060D01*
X192663000Y-116867940D02*
X192861120Y-116867940D01*
X193410840Y-116367560D02*
X193410840Y-116667280D01*
X193410840Y-116667280D02*
X193710560Y-116667280D01*
X193710560Y-116367560D02*
X193710560Y-116667280D01*
X193410840Y-116367560D02*
X193710560Y-116367560D01*
X193837560Y-116342160D02*
X193837560Y-116568220D01*
X193837560Y-116568220D02*
X193911220Y-116568220D01*
X193911220Y-116342160D02*
X193911220Y-116568220D01*
X193837560Y-116342160D02*
X193911220Y-116342160D01*
X193436240Y-117541040D02*
X192389760Y-117541040D01*
X192415160Y-116392960D02*
X193837560Y-116392960D01*
X193833202Y-116517420D02*
G75*
G03X193833202Y-116517420I-71842J0D01*
G01*
X193911220Y-116619020D02*
G75*
G03X193911220Y-117314980I0J-347980D01*
G01*
X191914780Y-117314980D02*
G75*
G03X191914780Y-116619020I0J347980D01*
G01*
X226695000Y-115570000D02*
X218821000Y-115570000D01*
X218821000Y-115570000D02*
X218821000Y-118110000D01*
X218821000Y-118110000D02*
X226695000Y-118110000D01*
X226695000Y-118110000D02*
X226695000Y-115570000D01*
X193259000Y-101332000D02*
X192059000Y-101332000D01*
X192059000Y-99582000D02*
X193259000Y-99582000D01*
X196737000Y-122393000D02*
X196737000Y-121193000D01*
X198487000Y-121193000D02*
X198487000Y-122393000D01*
X199404000Y-122393000D02*
X199404000Y-121193000D01*
X201154000Y-121193000D02*
X201154000Y-122393000D01*
X219329000Y-111633000D02*
X219329000Y-114681000D01*
X219329000Y-114681000D02*
X226441000Y-114681000D01*
X226441000Y-114681000D02*
X226441000Y-111633000D01*
X219329000Y-108585000D02*
X219329000Y-107823000D01*
X219329000Y-107823000D02*
X220853000Y-105537000D01*
X220853000Y-105537000D02*
X224917000Y-105537000D01*
X224917000Y-105537000D02*
X226441000Y-107823000D01*
X226441000Y-107823000D02*
X226441000Y-108585000D01*
D17*
X188647605Y-101981000D02*
G75*
G03X188647605Y-101981000I-179605J0D01*
G01*
D16*
X196977000Y-115189000D02*
X190627000Y-115189000D01*
X196977000Y-102489000D02*
X190627000Y-102489000D01*
X196977000Y-115189000D02*
X196977000Y-102489000D01*
X194437000Y-102489000D02*
X194437000Y-103505000D01*
X194437000Y-103505000D02*
X193167000Y-103505000D01*
X193167000Y-103505000D02*
X193167000Y-102489000D01*
X190627000Y-102489000D02*
X190627000Y-115189000D01*
X186605000Y-106502000D02*
X185505000Y-106502000D01*
X186605000Y-103302000D02*
X185505000Y-103302000D01*
X185505000Y-103302000D02*
X185505000Y-106502000D01*
X186605000Y-103302000D02*
X186605000Y-106502000D01*
X205740000Y-108077000D02*
X205740000Y-115697000D01*
X205740000Y-115697000D02*
X210820000Y-115697000D01*
X210820000Y-115697000D02*
X210820000Y-105537000D01*
X210820000Y-105537000D02*
X208280000Y-105537000D01*
X207010000Y-105257000D02*
X205460000Y-105257000D01*
X208280000Y-105537000D02*
X208280000Y-108077000D01*
X208280000Y-108077000D02*
X205740000Y-108077000D01*
X205460000Y-105257000D02*
X205460000Y-106807000D01*
X204080000Y-129150000D02*
X212480000Y-129150000D01*
X204080000Y-122800000D02*
X212480000Y-122800000D01*
X212480000Y-122800000D02*
X212480000Y-129150000D01*
X203780000Y-128450000D02*
X212780000Y-128450000D01*
X204080000Y-129150000D02*
X204080000Y-122800000D01*
D18*
X221944000Y-102544381D02*
X222201143Y-102544381D01*
X222329715Y-102592000D01*
X222458286Y-102687238D01*
X222522572Y-102877714D01*
X222522572Y-103211048D01*
X222458286Y-103401524D01*
X222329715Y-103496762D01*
X222201143Y-103544381D01*
X221944000Y-103544381D01*
X221815429Y-103496762D01*
X221686858Y-103401524D01*
X221622572Y-103211048D01*
X221622572Y-102877714D01*
X221686858Y-102687238D01*
X221815429Y-102592000D01*
X221944000Y-102544381D01*
X223036858Y-103258667D02*
X223679715Y-103258667D01*
X222908286Y-103544381D02*
X223358286Y-102544381D01*
X223808286Y-103544381D01*
X224258287Y-103544381D02*
X224258287Y-102544381D01*
X224579715Y-102544381D01*
X224772572Y-102592000D01*
X224901144Y-102687238D01*
X224965429Y-102782476D01*
X225029715Y-102972952D01*
X225029715Y-103115810D01*
X224965429Y-103306286D01*
X224901144Y-103401524D01*
X224772572Y-103496762D01*
X224579715Y-103544381D01*
X224258287Y-103544381D01*
X225544001Y-103496762D02*
X225736858Y-103544381D01*
X226058287Y-103544381D01*
X226186858Y-103496762D01*
X226251144Y-103449143D01*
X226315429Y-103353905D01*
X226315429Y-103258667D01*
X226251144Y-103163429D01*
X226186858Y-103115810D01*
X226058287Y-103068190D01*
X225801144Y-103020571D01*
X225672572Y-102972952D01*
X225608287Y-102925333D01*
X225544001Y-102830095D01*
X225544001Y-102734857D01*
X225608287Y-102639619D01*
X225672572Y-102592000D01*
X225801144Y-102544381D01*
X226122572Y-102544381D01*
X226315429Y-102592000D01*
X226701143Y-102544381D02*
X227472572Y-102544381D01*
X227086858Y-103544381D02*
X227086858Y-102544381D01*
X228179714Y-102544381D02*
X228436857Y-102544381D01*
X228565429Y-102592000D01*
X228694000Y-102687238D01*
X228758286Y-102877714D01*
X228758286Y-103211048D01*
X228694000Y-103401524D01*
X228565429Y-103496762D01*
X228436857Y-103544381D01*
X228179714Y-103544381D01*
X228051143Y-103496762D01*
X227922572Y-103401524D01*
X227858286Y-103211048D01*
X227858286Y-102877714D01*
X227922572Y-102687238D01*
X228051143Y-102592000D01*
X228179714Y-102544381D01*
X229594000Y-102544381D02*
X229851143Y-102544381D01*
X229979715Y-102592000D01*
X230108286Y-102687238D01*
X230172572Y-102877714D01*
X230172572Y-103211048D01*
X230108286Y-103401524D01*
X229979715Y-103496762D01*
X229851143Y-103544381D01*
X229594000Y-103544381D01*
X229465429Y-103496762D01*
X229336858Y-103401524D01*
X229272572Y-103211048D01*
X229272572Y-102877714D01*
X229336858Y-102687238D01*
X229465429Y-102592000D01*
X229594000Y-102544381D01*
X231394001Y-103544381D02*
X230751144Y-103544381D01*
X230751144Y-102544381D01*
D11*
X228092000Y-115334143D02*
X228055714Y-115370429D01*
X227946857Y-115406714D01*
X227874286Y-115406714D01*
X227765429Y-115370429D01*
X227692857Y-115297857D01*
X227656572Y-115225286D01*
X227620286Y-115080143D01*
X227620286Y-114971286D01*
X227656572Y-114826143D01*
X227692857Y-114753571D01*
X227765429Y-114681000D01*
X227874286Y-114644714D01*
X227946857Y-114644714D01*
X228055714Y-114681000D01*
X228092000Y-114717286D01*
X228817714Y-115406714D02*
X228382286Y-115406714D01*
X228600000Y-115406714D02*
X228600000Y-114644714D01*
X228527429Y-114753571D01*
X228454857Y-114826143D01*
X228382286Y-114862429D01*
X217551000Y-115207143D02*
X217514714Y-115243429D01*
X217405857Y-115279714D01*
X217333286Y-115279714D01*
X217224429Y-115243429D01*
X217151857Y-115170857D01*
X217115572Y-115098286D01*
X217079286Y-114953143D01*
X217079286Y-114844286D01*
X217115572Y-114699143D01*
X217151857Y-114626571D01*
X217224429Y-114554000D01*
X217333286Y-114517714D01*
X217405857Y-114517714D01*
X217514714Y-114554000D01*
X217551000Y-114590286D01*
X217841286Y-114590286D02*
X217877572Y-114554000D01*
X217950143Y-114517714D01*
X218131572Y-114517714D01*
X218204143Y-114554000D01*
X218240429Y-114590286D01*
X218276714Y-114662857D01*
X218276714Y-114735429D01*
X218240429Y-114844286D01*
X217805000Y-115279714D01*
X218276714Y-115279714D01*
X184803143Y-100584000D02*
X184839429Y-100620286D01*
X184875714Y-100729143D01*
X184875714Y-100801714D01*
X184839429Y-100910571D01*
X184766857Y-100983143D01*
X184694286Y-101019428D01*
X184549143Y-101055714D01*
X184440286Y-101055714D01*
X184295143Y-101019428D01*
X184222571Y-100983143D01*
X184150000Y-100910571D01*
X184113714Y-100801714D01*
X184113714Y-100729143D01*
X184150000Y-100620286D01*
X184186286Y-100584000D01*
X184113714Y-100330000D02*
X184113714Y-99858286D01*
X184404000Y-100112286D01*
X184404000Y-100003428D01*
X184440286Y-99930857D01*
X184476571Y-99894571D01*
X184549143Y-99858286D01*
X184730571Y-99858286D01*
X184803143Y-99894571D01*
X184839429Y-99930857D01*
X184875714Y-100003428D01*
X184875714Y-100221143D01*
X184839429Y-100293714D01*
X184803143Y-100330000D01*
X201231500Y-99713143D02*
X201195214Y-99749429D01*
X201086357Y-99785714D01*
X201013786Y-99785714D01*
X200904929Y-99749429D01*
X200832357Y-99676857D01*
X200796072Y-99604286D01*
X200759786Y-99459143D01*
X200759786Y-99350286D01*
X200796072Y-99205143D01*
X200832357Y-99132571D01*
X200904929Y-99060000D01*
X201013786Y-99023714D01*
X201086357Y-99023714D01*
X201195214Y-99060000D01*
X201231500Y-99096286D01*
X201884643Y-99277714D02*
X201884643Y-99785714D01*
X201703214Y-98987429D02*
X201521786Y-99531714D01*
X201993500Y-99531714D01*
D13*
X189810572Y-119788214D02*
X189810572Y-119026214D01*
X189992000Y-119026214D01*
X190100857Y-119062500D01*
X190173429Y-119135071D01*
X190209714Y-119207643D01*
X190246000Y-119352786D01*
X190246000Y-119461643D01*
X190209714Y-119606786D01*
X190173429Y-119679357D01*
X190100857Y-119751929D01*
X189992000Y-119788214D01*
X189810572Y-119788214D01*
X190971714Y-119788214D02*
X190536286Y-119788214D01*
X190754000Y-119788214D02*
X190754000Y-119026214D01*
X190681429Y-119135071D01*
X190608857Y-119207643D01*
X190536286Y-119243929D01*
D12*
X194889524Y-118641881D02*
X195460953Y-118641881D01*
X195175238Y-119641881D02*
X195175238Y-118641881D01*
X195699048Y-119641881D02*
X196222858Y-118975214D01*
X195699048Y-118975214D02*
X196222858Y-119641881D01*
D13*
X189747072Y-117248214D02*
X189747072Y-116486214D01*
X189928500Y-116486214D01*
X190037357Y-116522500D01*
X190109929Y-116595071D01*
X190146214Y-116667643D01*
X190182500Y-116812786D01*
X190182500Y-116921643D01*
X190146214Y-117066786D01*
X190109929Y-117139357D01*
X190037357Y-117211929D01*
X189928500Y-117248214D01*
X189747072Y-117248214D01*
X190472786Y-116558786D02*
X190509072Y-116522500D01*
X190581643Y-116486214D01*
X190763072Y-116486214D01*
X190835643Y-116522500D01*
X190871929Y-116558786D01*
X190908214Y-116631357D01*
X190908214Y-116703929D01*
X190871929Y-116812786D01*
X190436500Y-117248214D01*
X190908214Y-117248214D01*
D12*
X195611762Y-117482881D02*
X195278428Y-117006690D01*
X195040333Y-117482881D02*
X195040333Y-116482881D01*
X195421286Y-116482881D01*
X195516524Y-116530500D01*
X195564143Y-116578119D01*
X195611762Y-116673357D01*
X195611762Y-116816214D01*
X195564143Y-116911452D01*
X195516524Y-116959071D01*
X195421286Y-117006690D01*
X195040333Y-117006690D01*
X195945095Y-117482881D02*
X196468905Y-116816214D01*
X195945095Y-116816214D02*
X196468905Y-117482881D01*
D11*
X195861214Y-100520500D02*
X195498357Y-100774500D01*
X195861214Y-100955928D02*
X195099214Y-100955928D01*
X195099214Y-100665643D01*
X195135500Y-100593071D01*
X195171786Y-100556786D01*
X195244357Y-100520500D01*
X195353214Y-100520500D01*
X195425786Y-100556786D01*
X195462071Y-100593071D01*
X195498357Y-100665643D01*
X195498357Y-100955928D01*
X195861214Y-99794786D02*
X195861214Y-100230214D01*
X195861214Y-100012500D02*
X195099214Y-100012500D01*
X195208071Y-100085071D01*
X195280643Y-100157643D01*
X195316929Y-100230214D01*
X197485000Y-125058714D02*
X197231000Y-124695857D01*
X197049572Y-125058714D02*
X197049572Y-124296714D01*
X197339857Y-124296714D01*
X197412429Y-124333000D01*
X197448714Y-124369286D01*
X197485000Y-124441857D01*
X197485000Y-124550714D01*
X197448714Y-124623286D01*
X197412429Y-124659571D01*
X197339857Y-124695857D01*
X197049572Y-124695857D01*
X197775286Y-124369286D02*
X197811572Y-124333000D01*
X197884143Y-124296714D01*
X198065572Y-124296714D01*
X198138143Y-124333000D01*
X198174429Y-124369286D01*
X198210714Y-124441857D01*
X198210714Y-124514429D01*
X198174429Y-124623286D01*
X197739000Y-125058714D01*
X198210714Y-125058714D01*
X200088500Y-125058714D02*
X199834500Y-124695857D01*
X199653072Y-125058714D02*
X199653072Y-124296714D01*
X199943357Y-124296714D01*
X200015929Y-124333000D01*
X200052214Y-124369286D01*
X200088500Y-124441857D01*
X200088500Y-124550714D01*
X200052214Y-124623286D01*
X200015929Y-124659571D01*
X199943357Y-124695857D01*
X199653072Y-124695857D01*
X200342500Y-124296714D02*
X200814214Y-124296714D01*
X200560214Y-124587000D01*
X200669072Y-124587000D01*
X200741643Y-124623286D01*
X200777929Y-124659571D01*
X200814214Y-124732143D01*
X200814214Y-124913571D01*
X200777929Y-124986143D01*
X200741643Y-125022429D01*
X200669072Y-125058714D01*
X200451357Y-125058714D01*
X200378786Y-125022429D01*
X200342500Y-124986143D01*
D13*
X223637929Y-109247214D02*
X223637929Y-109864071D01*
X223674214Y-109936643D01*
X223710500Y-109972929D01*
X223783071Y-110009214D01*
X223928214Y-110009214D01*
X224000786Y-109972929D01*
X224037071Y-109936643D01*
X224073357Y-109864071D01*
X224073357Y-109247214D01*
X224835357Y-110009214D02*
X224399929Y-110009214D01*
X224617643Y-110009214D02*
X224617643Y-109247214D01*
X224545072Y-109356071D01*
X224472500Y-109428643D01*
X224399929Y-109464929D01*
D11*
X193348429Y-104103714D02*
X193348429Y-104720571D01*
X193384714Y-104793143D01*
X193421000Y-104829429D01*
X193493571Y-104865714D01*
X193638714Y-104865714D01*
X193711286Y-104829429D01*
X193747571Y-104793143D01*
X193783857Y-104720571D01*
X193783857Y-104103714D01*
X194110429Y-104176286D02*
X194146715Y-104140000D01*
X194219286Y-104103714D01*
X194400715Y-104103714D01*
X194473286Y-104140000D01*
X194509572Y-104176286D01*
X194545857Y-104248857D01*
X194545857Y-104321429D01*
X194509572Y-104430286D01*
X194074143Y-104865714D01*
X194545857Y-104865714D01*
X185438143Y-106897714D02*
X185946143Y-107659714D01*
X185946143Y-106897714D02*
X185438143Y-107659714D01*
X186635571Y-107659714D02*
X186200143Y-107659714D01*
X186417857Y-107659714D02*
X186417857Y-106897714D01*
X186345286Y-107006571D01*
X186272714Y-107079143D01*
X186200143Y-107115429D01*
X203345143Y-125512286D02*
X203381429Y-125548572D01*
X203417714Y-125657429D01*
X203417714Y-125730000D01*
X203381429Y-125838857D01*
X203308857Y-125911429D01*
X203236286Y-125947714D01*
X203091143Y-125984000D01*
X202982286Y-125984000D01*
X202837143Y-125947714D01*
X202764571Y-125911429D01*
X202692000Y-125838857D01*
X202655714Y-125730000D01*
X202655714Y-125657429D01*
X202692000Y-125548572D01*
X202728286Y-125512286D01*
X202655714Y-125040572D02*
X202655714Y-124895429D01*
X202692000Y-124822857D01*
X202764571Y-124750286D01*
X202909714Y-124714000D01*
X203163714Y-124714000D01*
X203308857Y-124750286D01*
X203381429Y-124822857D01*
X203417714Y-124895429D01*
X203417714Y-125040572D01*
X203381429Y-125113143D01*
X203308857Y-125185714D01*
X203163714Y-125222000D01*
X202909714Y-125222000D01*
X202764571Y-125185714D01*
X202692000Y-125113143D01*
X202655714Y-125040572D01*
X203417714Y-124387428D02*
X202655714Y-124387428D01*
X203417714Y-123952000D01*
X202655714Y-123952000D01*
X203417714Y-123190000D02*
X203417714Y-123625428D01*
X203417714Y-123407714D02*
X202655714Y-123407714D01*
X202764571Y-123480285D01*
X202837143Y-123552857D01*
X202873429Y-123625428D01*
M02*
