G04 #@! TF.FileFunction,Copper,L1,Top,Signal*
%FSLAX46Y46*%
G04 Gerber Fmt 4.6, Leading zero omitted, Abs format (unit mm)*
G04 Created by KiCad (PCBNEW (2015-04-22 BZR 5620)-product) date 28/04/2015 22:04:39*
%MOMM*%
G01*
G04 APERTURE LIST*
%ADD10C,0.100000*%
%ADD11O,2.032000X1.727200*%
%ADD12R,1.250000X1.500000*%
%ADD13R,1.500000X1.250000*%
%ADD14R,1.198880X1.198880*%
%ADD15O,1.727200X2.032000*%
%ADD16R,1.500000X1.300000*%
%ADD17R,1.300000X1.500000*%
%ADD18R,3.657600X2.032000*%
%ADD19R,1.016000X2.032000*%
%ADD20R,1.950000X0.600000*%
%ADD21R,2.100000X0.400000*%
%ADD22R,1.727200X1.727200*%
%ADD23O,1.727200X1.727200*%
%ADD24R,1.175000X1.900000*%
%ADD25R,2.375000X1.900000*%
%ADD26R,1.475000X2.100000*%
%ADD27R,0.400000X1.380000*%
%ADD28C,0.889000*%
%ADD29C,0.254000*%
G04 APERTURE END LIST*
D10*
D11*
X202565000Y-103632000D03*
X202565000Y-106172000D03*
X202565000Y-108712000D03*
X202565000Y-111252000D03*
X202565000Y-113792000D03*
X202565000Y-116332000D03*
X213995000Y-103632000D03*
X213995000Y-106172000D03*
X213995000Y-108712000D03*
X213995000Y-111252000D03*
X213995000Y-113792000D03*
X213995000Y-116332000D03*
D12*
X228219000Y-113518000D03*
X228219000Y-111018000D03*
X217678000Y-110891000D03*
X217678000Y-113391000D03*
D13*
X186202000Y-100457000D03*
X188702000Y-100457000D03*
X199751000Y-100330000D03*
X197251000Y-100330000D03*
D14*
X191863980Y-119126000D03*
X193962020Y-119126000D03*
X191863980Y-116967000D03*
X193962020Y-116967000D03*
D15*
X225298000Y-116840000D03*
X222758000Y-116840000D03*
X220218000Y-116840000D03*
D16*
X191309000Y-100457000D03*
X194009000Y-100457000D03*
D17*
X197612000Y-120443000D03*
X197612000Y-123143000D03*
X200279000Y-120443000D03*
X200279000Y-123143000D03*
D18*
X222885000Y-106807000D03*
D19*
X222885000Y-113411000D03*
X225171000Y-113411000D03*
X220599000Y-113411000D03*
D20*
X198501000Y-103124000D03*
X198501000Y-104394000D03*
X198501000Y-105664000D03*
X198501000Y-106934000D03*
X198501000Y-108204000D03*
X198501000Y-109474000D03*
X198501000Y-110744000D03*
X198501000Y-112014000D03*
X198502000Y-113284000D03*
X198502000Y-114554000D03*
X189102000Y-114554000D03*
X189102000Y-113284000D03*
X189102000Y-112014000D03*
X189102000Y-110744000D03*
X189102000Y-109474000D03*
X189102000Y-108204000D03*
X189102000Y-106934000D03*
X189102000Y-105664000D03*
X189102000Y-104394000D03*
X189102000Y-103124000D03*
D21*
X186055000Y-106102000D03*
X186055000Y-104902000D03*
X186055000Y-103702000D03*
D22*
X207010000Y-106807000D03*
D23*
X209550000Y-106807000D03*
X207010000Y-109347000D03*
X209550000Y-109347000D03*
X207010000Y-111887000D03*
X209550000Y-111887000D03*
X207010000Y-114427000D03*
X209550000Y-114427000D03*
D24*
X207442500Y-127000000D03*
X209117500Y-127000000D03*
D25*
X211192500Y-127000000D03*
X205367500Y-127000000D03*
D26*
X205817500Y-124275000D03*
D27*
X206980000Y-123960000D03*
X207630000Y-123960000D03*
X208280000Y-123960000D03*
X208930000Y-123960000D03*
X209580000Y-123960000D03*
D26*
X210742500Y-124275000D03*
D28*
X195326000Y-101981000D03*
X217678000Y-116078000D03*
X229108000Y-109093000D03*
X202438000Y-123952000D03*
X210312000Y-121793000D03*
X186436000Y-102235000D03*
X200342500Y-103632000D03*
X192913000Y-103505000D03*
X195326000Y-103505000D03*
X201676000Y-100457000D03*
X196342000Y-106553000D03*
X189738000Y-118491000D03*
X186944000Y-108712000D03*
X207645000Y-104267000D03*
X196215000Y-108331000D03*
X193802000Y-105791000D03*
X208407000Y-121158000D03*
X192913000Y-108077000D03*
X207137000Y-121539000D03*
D29*
X197251000Y-100330000D02*
X196977000Y-100330000D01*
X196977000Y-100330000D02*
X195326000Y-101981000D01*
X220599000Y-113411000D02*
X217698000Y-113411000D01*
X217698000Y-113411000D02*
X217678000Y-113431000D01*
X217678000Y-113431000D02*
X217678000Y-116078000D01*
X228219000Y-111018000D02*
X228219000Y-109982000D01*
X228219000Y-109982000D02*
X229108000Y-109093000D01*
X197612000Y-123143000D02*
X200279000Y-123143000D01*
X200279000Y-123143000D02*
X201629000Y-123143000D01*
X201629000Y-123143000D02*
X202438000Y-123952000D01*
X209580000Y-123960000D02*
X209580000Y-122525000D01*
X209580000Y-122525000D02*
X210312000Y-121793000D01*
X184531000Y-102616000D02*
X186055000Y-102616000D01*
X186055000Y-102616000D02*
X186436000Y-102235000D01*
X186055000Y-104902000D02*
X184912000Y-104902000D01*
X184531000Y-102128000D02*
X186202000Y-100457000D01*
X184531000Y-104521000D02*
X184531000Y-102616000D01*
X184531000Y-102616000D02*
X184531000Y-102128000D01*
X184912000Y-104902000D02*
X184531000Y-104521000D01*
X186202000Y-100457000D02*
X186202000Y-100691000D01*
X199834500Y-103124000D02*
X200342500Y-103632000D01*
X198501000Y-103124000D02*
X199834500Y-103124000D01*
X188702000Y-100457000D02*
X191309000Y-100457000D01*
X188702000Y-100457000D02*
X189102000Y-100857000D01*
X189102000Y-100857000D02*
X189102000Y-103124000D01*
X191309000Y-101901000D02*
X191309000Y-100457000D01*
X192913000Y-103505000D02*
X191309000Y-101901000D01*
X196723000Y-102108000D02*
X195326000Y-103505000D01*
X199898000Y-102108000D02*
X196723000Y-102108000D01*
X200533000Y-101473000D02*
X199898000Y-102108000D01*
X215138000Y-101473000D02*
X200533000Y-101473000D01*
X215646000Y-101981000D02*
X215138000Y-101473000D01*
X215646000Y-110553500D02*
X215646000Y-101981000D01*
X214947500Y-111252000D02*
X215646000Y-110553500D01*
X213995000Y-111252000D02*
X214947500Y-111252000D01*
X206980000Y-123960000D02*
X206980000Y-122779000D01*
X225298000Y-119507000D02*
X225298000Y-116840000D01*
X222631000Y-122174000D02*
X225298000Y-119507000D01*
X214503000Y-122174000D02*
X222631000Y-122174000D01*
X212217000Y-119888000D02*
X214503000Y-122174000D01*
X206756000Y-119888000D02*
X212217000Y-119888000D01*
X205994000Y-120650000D02*
X206756000Y-119888000D01*
X205994000Y-121793000D02*
X205994000Y-120650000D01*
X206980000Y-122779000D02*
X205994000Y-121793000D01*
X228219000Y-113518000D02*
X225278000Y-113518000D01*
X225278000Y-113518000D02*
X225171000Y-113411000D01*
X225298000Y-116439000D02*
X228219000Y-113518000D01*
X201676000Y-100457000D02*
X202692000Y-99441000D01*
X217678000Y-100838000D02*
X217678000Y-102489000D01*
X216281000Y-99441000D02*
X217678000Y-100838000D01*
X202692000Y-99441000D02*
X216281000Y-99441000D01*
X199878000Y-100457000D02*
X199751000Y-100330000D01*
X198501000Y-106934000D02*
X196723000Y-106934000D01*
X217678000Y-102489000D02*
X217678000Y-110891000D01*
X196723000Y-106934000D02*
X196342000Y-106553000D01*
X222885000Y-113411000D02*
X222885000Y-114173000D01*
X222885000Y-114173000D02*
X220218000Y-116840000D01*
X217678000Y-110891000D02*
X218801000Y-110891000D01*
X222885000Y-109220000D02*
X222885000Y-113411000D01*
X222504000Y-108839000D02*
X222885000Y-109220000D01*
X220853000Y-108839000D02*
X222504000Y-108839000D01*
X218801000Y-110891000D02*
X220853000Y-108839000D01*
X222885000Y-106807000D02*
X222885000Y-109220000D01*
X201676000Y-100457000D02*
X199878000Y-100457000D01*
X191863980Y-119126000D02*
X190373000Y-119126000D01*
X190373000Y-119126000D02*
X189738000Y-118491000D01*
X187452000Y-108204000D02*
X189102000Y-108204000D01*
X186944000Y-108712000D02*
X187452000Y-108204000D01*
X197612000Y-120443000D02*
X196295000Y-119126000D01*
X196295000Y-119126000D02*
X193962020Y-119126000D01*
X191863980Y-116967000D02*
X189103000Y-116967000D01*
X187579000Y-109474000D02*
X189102000Y-109474000D01*
X187198000Y-109855000D02*
X187579000Y-109474000D01*
X187198000Y-115062000D02*
X187198000Y-109855000D01*
X189103000Y-116967000D02*
X187198000Y-115062000D01*
X200279000Y-120443000D02*
X200199000Y-120443000D01*
X200199000Y-120443000D02*
X196723000Y-116967000D01*
X196723000Y-116967000D02*
X193962020Y-116967000D01*
X207645000Y-104267000D02*
X205994000Y-104267000D01*
X205994000Y-104267000D02*
X204470000Y-104267000D01*
X204470000Y-104267000D02*
X202565000Y-106172000D01*
X209550000Y-111887000D02*
X209550000Y-111633000D01*
X209550000Y-111633000D02*
X208534000Y-110617000D01*
X208534000Y-110617000D02*
X206121000Y-110617000D01*
X206121000Y-110617000D02*
X204216000Y-108712000D01*
X204216000Y-108712000D02*
X202565000Y-108712000D01*
X198502000Y-113284000D02*
X199771000Y-113284000D01*
X201168000Y-116332000D02*
X202565000Y-116332000D01*
X200660000Y-115824000D02*
X201168000Y-116332000D01*
X200660000Y-114173000D02*
X200660000Y-115824000D01*
X199771000Y-113284000D02*
X200660000Y-114173000D01*
X209550000Y-109347000D02*
X210820000Y-109347000D01*
X210820000Y-109347000D02*
X213995000Y-106172000D01*
X189102000Y-114554000D02*
X195834000Y-114554000D01*
X211836000Y-118491000D02*
X213995000Y-116332000D01*
X199771000Y-118491000D02*
X211836000Y-118491000D01*
X195834000Y-114554000D02*
X199771000Y-118491000D01*
X198501000Y-112014000D02*
X196850000Y-112014000D01*
X196215000Y-111379000D02*
X196215000Y-108331000D01*
X196850000Y-112014000D02*
X196215000Y-111379000D01*
X207010000Y-109347000D02*
X206121000Y-109347000D01*
X200533000Y-108204000D02*
X198501000Y-108204000D01*
X201295000Y-107442000D02*
X200533000Y-108204000D01*
X204216000Y-107442000D02*
X201295000Y-107442000D01*
X206121000Y-109347000D02*
X204216000Y-107442000D01*
X207010000Y-111887000D02*
X205994000Y-111887000D01*
X200660000Y-109474000D02*
X198501000Y-109474000D01*
X201168000Y-109982000D02*
X200660000Y-109474000D01*
X204089000Y-109982000D02*
X201168000Y-109982000D01*
X205994000Y-111887000D02*
X204089000Y-109982000D01*
X207010000Y-114427000D02*
X205994000Y-114427000D01*
X200025000Y-110744000D02*
X198501000Y-110744000D01*
X201803000Y-112522000D02*
X200025000Y-110744000D01*
X204089000Y-112522000D02*
X201803000Y-112522000D01*
X205994000Y-114427000D02*
X204089000Y-112522000D01*
X194009000Y-100457000D02*
X194009000Y-104060000D01*
X191135000Y-106934000D02*
X189102000Y-106934000D01*
X194009000Y-104060000D02*
X191135000Y-106934000D01*
X208280000Y-123960000D02*
X208280000Y-121285000D01*
X195199000Y-104394000D02*
X198501000Y-104394000D01*
X193802000Y-105791000D02*
X195199000Y-104394000D01*
X208280000Y-121285000D02*
X208407000Y-121158000D01*
X207630000Y-123960000D02*
X207630000Y-122032000D01*
X195326000Y-105664000D02*
X198501000Y-105664000D01*
X192913000Y-108077000D02*
X195326000Y-105664000D01*
X207630000Y-122032000D02*
X207137000Y-121539000D01*
X186055000Y-106102000D02*
X187141000Y-106102000D01*
X187579000Y-105664000D02*
X189102000Y-105664000D01*
X187141000Y-106102000D02*
X187579000Y-105664000D01*
X186055000Y-103702000D02*
X187014000Y-103702000D01*
X187014000Y-103702000D02*
X187706000Y-104394000D01*
X187706000Y-104394000D02*
X189102000Y-104394000D01*
X207442500Y-127000000D02*
X205367500Y-127000000D01*
X209117500Y-127000000D02*
X207442500Y-127000000D01*
X205817500Y-124275000D02*
X205817500Y-126550000D01*
X205817500Y-126550000D02*
X206267500Y-127000000D01*
X209117500Y-127000000D02*
X211192500Y-127000000D01*
X211192500Y-127000000D02*
X210742500Y-126550000D01*
X210742500Y-126550000D02*
X210742500Y-124275000D01*
G36*
X196286995Y-99110000D02*
X196226959Y-99128773D01*
X196077566Y-99227674D01*
X195961558Y-99364208D01*
X195888081Y-99527611D01*
X195862928Y-99705000D01*
X195862928Y-100366441D01*
X195397072Y-100832297D01*
X195397072Y-99807000D01*
X195388697Y-99703957D01*
X195335227Y-99532959D01*
X195236326Y-99383566D01*
X195099792Y-99267558D01*
X194936389Y-99194081D01*
X194759000Y-99168928D01*
X193259000Y-99168928D01*
X193155957Y-99177303D01*
X192984959Y-99230773D01*
X192835566Y-99329674D01*
X192719558Y-99466208D01*
X192660010Y-99598633D01*
X192621730Y-99506215D01*
X192552237Y-99402211D01*
X192463789Y-99313763D01*
X192359785Y-99244270D01*
X192244223Y-99196403D01*
X192121542Y-99172000D01*
X191594750Y-99172000D01*
X191436000Y-99330750D01*
X191436000Y-100330000D01*
X191456000Y-100330000D01*
X191456000Y-100584000D01*
X191436000Y-100584000D01*
X191436000Y-101583250D01*
X191594750Y-101742000D01*
X192121542Y-101742000D01*
X192244223Y-101717597D01*
X192359785Y-101669730D01*
X192463789Y-101600237D01*
X192552237Y-101511789D01*
X192621730Y-101407785D01*
X192661279Y-101312303D01*
X192682773Y-101381041D01*
X192781674Y-101530434D01*
X192918208Y-101646442D01*
X193081611Y-101719919D01*
X193247000Y-101743370D01*
X193247000Y-103744369D01*
X191182000Y-105809369D01*
X191182000Y-101583250D01*
X191182000Y-100584000D01*
X191182000Y-100330000D01*
X191182000Y-99330750D01*
X191023250Y-99172000D01*
X190496458Y-99172000D01*
X190373777Y-99196403D01*
X190258215Y-99244270D01*
X190154211Y-99313763D01*
X190065763Y-99402211D01*
X189997147Y-99504901D01*
X189945237Y-99427211D01*
X189856789Y-99338763D01*
X189752785Y-99269270D01*
X189637223Y-99221403D01*
X189514542Y-99197000D01*
X188987750Y-99197000D01*
X188829000Y-99355750D01*
X188829000Y-100330000D01*
X189928250Y-100330000D01*
X190005500Y-100252750D01*
X190082750Y-100330000D01*
X191182000Y-100330000D01*
X191182000Y-100584000D01*
X190082750Y-100584000D01*
X190005500Y-100661250D01*
X189928250Y-100584000D01*
X188829000Y-100584000D01*
X188829000Y-101558250D01*
X188987750Y-101717000D01*
X189514542Y-101717000D01*
X189637223Y-101692597D01*
X189752785Y-101644730D01*
X189856789Y-101575237D01*
X189945237Y-101486789D01*
X189997147Y-101409098D01*
X190065763Y-101511789D01*
X190154211Y-101600237D01*
X190258215Y-101669730D01*
X190373777Y-101717597D01*
X190496458Y-101742000D01*
X191023250Y-101742000D01*
X191182000Y-101583250D01*
X191182000Y-105809369D01*
X190819369Y-106172000D01*
X190676154Y-106172000D01*
X190689919Y-106141389D01*
X190715072Y-105964000D01*
X190715072Y-105364000D01*
X190706697Y-105260957D01*
X190653227Y-105089959D01*
X190616548Y-105034555D01*
X190689919Y-104871389D01*
X190715072Y-104694000D01*
X190715072Y-104094000D01*
X190706697Y-103990957D01*
X190653227Y-103819959D01*
X190614860Y-103762005D01*
X190639730Y-103724785D01*
X190687597Y-103609223D01*
X190712000Y-103486542D01*
X190712000Y-103409750D01*
X190712000Y-102838250D01*
X190712000Y-102761458D01*
X190687597Y-102638777D01*
X190639730Y-102523215D01*
X190570237Y-102419211D01*
X190481789Y-102330763D01*
X190377785Y-102261270D01*
X190262223Y-102213403D01*
X190139542Y-102189000D01*
X190014458Y-102189000D01*
X189387750Y-102189000D01*
X189229000Y-102347750D01*
X189229000Y-102997000D01*
X190553250Y-102997000D01*
X190712000Y-102838250D01*
X190712000Y-103409750D01*
X190553250Y-103251000D01*
X189229000Y-103251000D01*
X189229000Y-103271000D01*
X188975000Y-103271000D01*
X188975000Y-103251000D01*
X188955000Y-103251000D01*
X188955000Y-102997000D01*
X188975000Y-102997000D01*
X188975000Y-102347750D01*
X188816250Y-102189000D01*
X188189542Y-102189000D01*
X188064458Y-102189000D01*
X187941777Y-102213403D01*
X187826215Y-102261270D01*
X187722211Y-102330763D01*
X187633763Y-102419211D01*
X187564270Y-102523215D01*
X187516403Y-102638777D01*
X187492000Y-102761458D01*
X187492000Y-102838250D01*
X187650748Y-102996998D01*
X187492000Y-102996998D01*
X187492000Y-103001819D01*
X187445792Y-102962558D01*
X187292506Y-102893630D01*
X187379161Y-102770790D01*
X187465268Y-102577392D01*
X187512170Y-102370952D01*
X187515546Y-102129150D01*
X187474426Y-101921481D01*
X187393754Y-101725753D01*
X187311361Y-101601743D01*
X187375434Y-101559326D01*
X187449211Y-101472494D01*
X187458763Y-101486789D01*
X187547211Y-101575237D01*
X187651215Y-101644730D01*
X187766777Y-101692597D01*
X187889458Y-101717000D01*
X188416250Y-101717000D01*
X188575000Y-101558250D01*
X188575000Y-100584000D01*
X188555000Y-100584000D01*
X188555000Y-100330000D01*
X188575000Y-100330000D01*
X188575000Y-99355750D01*
X188416250Y-99197000D01*
X187889458Y-99197000D01*
X187766777Y-99221403D01*
X187651215Y-99269270D01*
X187547211Y-99338763D01*
X187458763Y-99427211D01*
X187450176Y-99440061D01*
X187429326Y-99408566D01*
X187292792Y-99292558D01*
X187129389Y-99219081D01*
X186952000Y-99193928D01*
X185452000Y-99193928D01*
X185348957Y-99202303D01*
X185177959Y-99255773D01*
X185028566Y-99354674D01*
X184912558Y-99491208D01*
X184839081Y-99654611D01*
X184813928Y-99832000D01*
X184813928Y-100767442D01*
X184200000Y-101381370D01*
X184200000Y-99958503D01*
X184218743Y-99767336D01*
X184264532Y-99615678D01*
X184338904Y-99475804D01*
X184439030Y-99353038D01*
X184561093Y-99252059D01*
X184700449Y-99176709D01*
X184851780Y-99129864D01*
X185040782Y-99110000D01*
X196286995Y-99110000D01*
X196286995Y-99110000D01*
G37*
X196286995Y-99110000D02*
X196226959Y-99128773D01*
X196077566Y-99227674D01*
X195961558Y-99364208D01*
X195888081Y-99527611D01*
X195862928Y-99705000D01*
X195862928Y-100366441D01*
X195397072Y-100832297D01*
X195397072Y-99807000D01*
X195388697Y-99703957D01*
X195335227Y-99532959D01*
X195236326Y-99383566D01*
X195099792Y-99267558D01*
X194936389Y-99194081D01*
X194759000Y-99168928D01*
X193259000Y-99168928D01*
X193155957Y-99177303D01*
X192984959Y-99230773D01*
X192835566Y-99329674D01*
X192719558Y-99466208D01*
X192660010Y-99598633D01*
X192621730Y-99506215D01*
X192552237Y-99402211D01*
X192463789Y-99313763D01*
X192359785Y-99244270D01*
X192244223Y-99196403D01*
X192121542Y-99172000D01*
X191594750Y-99172000D01*
X191436000Y-99330750D01*
X191436000Y-100330000D01*
X191456000Y-100330000D01*
X191456000Y-100584000D01*
X191436000Y-100584000D01*
X191436000Y-101583250D01*
X191594750Y-101742000D01*
X192121542Y-101742000D01*
X192244223Y-101717597D01*
X192359785Y-101669730D01*
X192463789Y-101600237D01*
X192552237Y-101511789D01*
X192621730Y-101407785D01*
X192661279Y-101312303D01*
X192682773Y-101381041D01*
X192781674Y-101530434D01*
X192918208Y-101646442D01*
X193081611Y-101719919D01*
X193247000Y-101743370D01*
X193247000Y-103744369D01*
X191182000Y-105809369D01*
X191182000Y-101583250D01*
X191182000Y-100584000D01*
X191182000Y-100330000D01*
X191182000Y-99330750D01*
X191023250Y-99172000D01*
X190496458Y-99172000D01*
X190373777Y-99196403D01*
X190258215Y-99244270D01*
X190154211Y-99313763D01*
X190065763Y-99402211D01*
X189997147Y-99504901D01*
X189945237Y-99427211D01*
X189856789Y-99338763D01*
X189752785Y-99269270D01*
X189637223Y-99221403D01*
X189514542Y-99197000D01*
X188987750Y-99197000D01*
X188829000Y-99355750D01*
X188829000Y-100330000D01*
X189928250Y-100330000D01*
X190005500Y-100252750D01*
X190082750Y-100330000D01*
X191182000Y-100330000D01*
X191182000Y-100584000D01*
X190082750Y-100584000D01*
X190005500Y-100661250D01*
X189928250Y-100584000D01*
X188829000Y-100584000D01*
X188829000Y-101558250D01*
X188987750Y-101717000D01*
X189514542Y-101717000D01*
X189637223Y-101692597D01*
X189752785Y-101644730D01*
X189856789Y-101575237D01*
X189945237Y-101486789D01*
X189997147Y-101409098D01*
X190065763Y-101511789D01*
X190154211Y-101600237D01*
X190258215Y-101669730D01*
X190373777Y-101717597D01*
X190496458Y-101742000D01*
X191023250Y-101742000D01*
X191182000Y-101583250D01*
X191182000Y-105809369D01*
X190819369Y-106172000D01*
X190676154Y-106172000D01*
X190689919Y-106141389D01*
X190715072Y-105964000D01*
X190715072Y-105364000D01*
X190706697Y-105260957D01*
X190653227Y-105089959D01*
X190616548Y-105034555D01*
X190689919Y-104871389D01*
X190715072Y-104694000D01*
X190715072Y-104094000D01*
X190706697Y-103990957D01*
X190653227Y-103819959D01*
X190614860Y-103762005D01*
X190639730Y-103724785D01*
X190687597Y-103609223D01*
X190712000Y-103486542D01*
X190712000Y-103409750D01*
X190712000Y-102838250D01*
X190712000Y-102761458D01*
X190687597Y-102638777D01*
X190639730Y-102523215D01*
X190570237Y-102419211D01*
X190481789Y-102330763D01*
X190377785Y-102261270D01*
X190262223Y-102213403D01*
X190139542Y-102189000D01*
X190014458Y-102189000D01*
X189387750Y-102189000D01*
X189229000Y-102347750D01*
X189229000Y-102997000D01*
X190553250Y-102997000D01*
X190712000Y-102838250D01*
X190712000Y-103409750D01*
X190553250Y-103251000D01*
X189229000Y-103251000D01*
X189229000Y-103271000D01*
X188975000Y-103271000D01*
X188975000Y-103251000D01*
X188955000Y-103251000D01*
X188955000Y-102997000D01*
X188975000Y-102997000D01*
X188975000Y-102347750D01*
X188816250Y-102189000D01*
X188189542Y-102189000D01*
X188064458Y-102189000D01*
X187941777Y-102213403D01*
X187826215Y-102261270D01*
X187722211Y-102330763D01*
X187633763Y-102419211D01*
X187564270Y-102523215D01*
X187516403Y-102638777D01*
X187492000Y-102761458D01*
X187492000Y-102838250D01*
X187650748Y-102996998D01*
X187492000Y-102996998D01*
X187492000Y-103001819D01*
X187445792Y-102962558D01*
X187292506Y-102893630D01*
X187379161Y-102770790D01*
X187465268Y-102577392D01*
X187512170Y-102370952D01*
X187515546Y-102129150D01*
X187474426Y-101921481D01*
X187393754Y-101725753D01*
X187311361Y-101601743D01*
X187375434Y-101559326D01*
X187449211Y-101472494D01*
X187458763Y-101486789D01*
X187547211Y-101575237D01*
X187651215Y-101644730D01*
X187766777Y-101692597D01*
X187889458Y-101717000D01*
X188416250Y-101717000D01*
X188575000Y-101558250D01*
X188575000Y-100584000D01*
X188555000Y-100584000D01*
X188555000Y-100330000D01*
X188575000Y-100330000D01*
X188575000Y-99355750D01*
X188416250Y-99197000D01*
X187889458Y-99197000D01*
X187766777Y-99221403D01*
X187651215Y-99269270D01*
X187547211Y-99338763D01*
X187458763Y-99427211D01*
X187450176Y-99440061D01*
X187429326Y-99408566D01*
X187292792Y-99292558D01*
X187129389Y-99219081D01*
X186952000Y-99193928D01*
X185452000Y-99193928D01*
X185348957Y-99202303D01*
X185177959Y-99255773D01*
X185028566Y-99354674D01*
X184912558Y-99491208D01*
X184839081Y-99654611D01*
X184813928Y-99832000D01*
X184813928Y-100767442D01*
X184200000Y-101381370D01*
X184200000Y-99958503D01*
X184218743Y-99767336D01*
X184264532Y-99615678D01*
X184338904Y-99475804D01*
X184439030Y-99353038D01*
X184561093Y-99252059D01*
X184700449Y-99176709D01*
X184851780Y-99129864D01*
X185040782Y-99110000D01*
X196286995Y-99110000D01*
G36*
X224536000Y-119191369D02*
X222315369Y-121412000D01*
X214818630Y-121412000D01*
X212755815Y-119349185D01*
X212701400Y-119304487D01*
X212647505Y-119259264D01*
X212643997Y-119257335D01*
X212640897Y-119254789D01*
X212578831Y-119221510D01*
X212517184Y-119187619D01*
X212513363Y-119186407D01*
X212509833Y-119184514D01*
X212442535Y-119163939D01*
X212375429Y-119142652D01*
X212371445Y-119142205D01*
X212367615Y-119141034D01*
X212297627Y-119133924D01*
X212252519Y-119128864D01*
X212254144Y-119127568D01*
X212257684Y-119125686D01*
X212312230Y-119081199D01*
X212367240Y-119037286D01*
X212372814Y-119031787D01*
X212372931Y-119031693D01*
X212373020Y-119031585D01*
X212374815Y-119029815D01*
X213598332Y-117806297D01*
X213813688Y-117830454D01*
X213834612Y-117830600D01*
X214155388Y-117830600D01*
X214446468Y-117802059D01*
X214726460Y-117717525D01*
X214984701Y-117580216D01*
X215211353Y-117395363D01*
X215397784Y-117170006D01*
X215536892Y-116912731D01*
X215623379Y-116633335D01*
X215653951Y-116342462D01*
X215627444Y-116051190D01*
X215544866Y-115770615D01*
X215409363Y-115511422D01*
X215226097Y-115283485D01*
X215002048Y-115095485D01*
X214942413Y-115062700D01*
X214984701Y-115040216D01*
X215211353Y-114855363D01*
X215397784Y-114630006D01*
X215536892Y-114372731D01*
X215623379Y-114093335D01*
X215653951Y-113802462D01*
X215627444Y-113511190D01*
X215544866Y-113230615D01*
X215409363Y-112971422D01*
X215226097Y-112743485D01*
X215002048Y-112555485D01*
X214940127Y-112521444D01*
X215146729Y-112370486D01*
X215345733Y-112154035D01*
X215498686Y-111902919D01*
X215599709Y-111626789D01*
X215602358Y-111611026D01*
X215481217Y-111379000D01*
X214122000Y-111379000D01*
X214122000Y-111399000D01*
X213868000Y-111399000D01*
X213868000Y-111379000D01*
X212508783Y-111379000D01*
X212387642Y-111611026D01*
X212390291Y-111626789D01*
X212491314Y-111902919D01*
X212644267Y-112154035D01*
X212843271Y-112370486D01*
X213048794Y-112520656D01*
X213005299Y-112543784D01*
X212778647Y-112728637D01*
X212592216Y-112953994D01*
X212453108Y-113211269D01*
X212366621Y-113490665D01*
X212336049Y-113781538D01*
X212362556Y-114072810D01*
X212445134Y-114353385D01*
X212580637Y-114612578D01*
X212763903Y-114840515D01*
X212987952Y-115028515D01*
X213047586Y-115061299D01*
X213005299Y-115083784D01*
X212778647Y-115268637D01*
X212592216Y-115493994D01*
X212453108Y-115751269D01*
X212366621Y-116030665D01*
X212336049Y-116321538D01*
X212362556Y-116612810D01*
X212424862Y-116824507D01*
X211520370Y-117729000D01*
X203258452Y-117729000D01*
X203296460Y-117717525D01*
X203554701Y-117580216D01*
X203781353Y-117395363D01*
X203967784Y-117170006D01*
X204106892Y-116912731D01*
X204193379Y-116633335D01*
X204223951Y-116342462D01*
X204197444Y-116051190D01*
X204114866Y-115770615D01*
X203979363Y-115511422D01*
X203796097Y-115283485D01*
X203572048Y-115095485D01*
X203512413Y-115062700D01*
X203554701Y-115040216D01*
X203781353Y-114855363D01*
X203967784Y-114630006D01*
X204106892Y-114372731D01*
X204193379Y-114093335D01*
X204223951Y-113802462D01*
X204217155Y-113727785D01*
X205455185Y-114965815D01*
X205509599Y-115010512D01*
X205563495Y-115055736D01*
X205567002Y-115057664D01*
X205570103Y-115060211D01*
X205632203Y-115093509D01*
X205682758Y-115121302D01*
X205748774Y-115247578D01*
X205932040Y-115475515D01*
X206156089Y-115663515D01*
X206412388Y-115804416D01*
X206691173Y-115892852D01*
X206981825Y-115925454D01*
X207002749Y-115925600D01*
X207017251Y-115925600D01*
X207308331Y-115897059D01*
X207588323Y-115812525D01*
X207846564Y-115675216D01*
X208073216Y-115490363D01*
X208259647Y-115265006D01*
X208279088Y-115229050D01*
X208288774Y-115247578D01*
X208472040Y-115475515D01*
X208696089Y-115663515D01*
X208952388Y-115804416D01*
X209231173Y-115892852D01*
X209521825Y-115925454D01*
X209542749Y-115925600D01*
X209557251Y-115925600D01*
X209848331Y-115897059D01*
X210128323Y-115812525D01*
X210386564Y-115675216D01*
X210613216Y-115490363D01*
X210799647Y-115265006D01*
X210938755Y-115007731D01*
X211025242Y-114728335D01*
X211055814Y-114437462D01*
X211029307Y-114146190D01*
X210946729Y-113865615D01*
X210811226Y-113606422D01*
X210627960Y-113378485D01*
X210403911Y-113190485D01*
X210344276Y-113157700D01*
X210386564Y-113135216D01*
X210613216Y-112950363D01*
X210799647Y-112725006D01*
X210938755Y-112467731D01*
X211025242Y-112188335D01*
X211055814Y-111897462D01*
X211029307Y-111606190D01*
X210946729Y-111325615D01*
X210811226Y-111066422D01*
X210627960Y-110838485D01*
X210403911Y-110650485D01*
X210344276Y-110617700D01*
X210386564Y-110595216D01*
X210613216Y-110410363D01*
X210799647Y-110185006D01*
X210841904Y-110106852D01*
X210890113Y-110102125D01*
X210960170Y-110095996D01*
X210964012Y-110094879D01*
X210968007Y-110094488D01*
X211035459Y-110074122D01*
X211102982Y-110054506D01*
X211106537Y-110052662D01*
X211110376Y-110051504D01*
X211172553Y-110018443D01*
X211235014Y-109986067D01*
X211238144Y-109983568D01*
X211241684Y-109981686D01*
X211296230Y-109937199D01*
X211351240Y-109893286D01*
X211356814Y-109887787D01*
X211356931Y-109887693D01*
X211357020Y-109887585D01*
X211358815Y-109885815D01*
X212353319Y-108891310D01*
X212362556Y-108992810D01*
X212445134Y-109273385D01*
X212580637Y-109532578D01*
X212763903Y-109760515D01*
X212987952Y-109948515D01*
X213049872Y-109982555D01*
X212843271Y-110133514D01*
X212644267Y-110349965D01*
X212491314Y-110601081D01*
X212390291Y-110877211D01*
X212387642Y-110892974D01*
X212508783Y-111125000D01*
X213868000Y-111125000D01*
X213868000Y-111105000D01*
X214122000Y-111105000D01*
X214122000Y-111125000D01*
X215481217Y-111125000D01*
X215602358Y-110892974D01*
X215599709Y-110877211D01*
X215498686Y-110601081D01*
X215345733Y-110349965D01*
X215146729Y-110133514D01*
X214941205Y-109983343D01*
X214984701Y-109960216D01*
X215211353Y-109775363D01*
X215397784Y-109550006D01*
X215536892Y-109292731D01*
X215623379Y-109013335D01*
X215653951Y-108722462D01*
X215627444Y-108431190D01*
X215544866Y-108150615D01*
X215409363Y-107891422D01*
X215226097Y-107663485D01*
X215002048Y-107475485D01*
X214942413Y-107442700D01*
X214984701Y-107420216D01*
X215211353Y-107235363D01*
X215397784Y-107010006D01*
X215536892Y-106752731D01*
X215623379Y-106473335D01*
X215653951Y-106182462D01*
X215627444Y-105891190D01*
X215544866Y-105610615D01*
X215409363Y-105351422D01*
X215226097Y-105123485D01*
X215002048Y-104935485D01*
X214942413Y-104902700D01*
X214984701Y-104880216D01*
X215211353Y-104695363D01*
X215397784Y-104470006D01*
X215536892Y-104212731D01*
X215623379Y-103933335D01*
X215653951Y-103642462D01*
X215627444Y-103351190D01*
X215544866Y-103070615D01*
X215409363Y-102811422D01*
X215226097Y-102583485D01*
X215002048Y-102395485D01*
X214745749Y-102254584D01*
X214466964Y-102166148D01*
X214176312Y-102133546D01*
X214155388Y-102133400D01*
X213834612Y-102133400D01*
X213543532Y-102161941D01*
X213263540Y-102246475D01*
X213005299Y-102383784D01*
X212778647Y-102568637D01*
X212592216Y-102793994D01*
X212453108Y-103051269D01*
X212366621Y-103330665D01*
X212336049Y-103621538D01*
X212362556Y-103912810D01*
X212445134Y-104193385D01*
X212580637Y-104452578D01*
X212763903Y-104680515D01*
X212987952Y-104868515D01*
X213047586Y-104901299D01*
X213005299Y-104923784D01*
X212778647Y-105108637D01*
X212592216Y-105333994D01*
X212453108Y-105591269D01*
X212366621Y-105870665D01*
X212336049Y-106161538D01*
X212362556Y-106452810D01*
X212424862Y-106664507D01*
X210700572Y-108388797D01*
X210627960Y-108298485D01*
X210403911Y-108110485D01*
X210344276Y-108077700D01*
X210386564Y-108055216D01*
X210613216Y-107870363D01*
X210799647Y-107645006D01*
X210938755Y-107387731D01*
X211025242Y-107108335D01*
X211055814Y-106817462D01*
X211029307Y-106526190D01*
X210946729Y-106245615D01*
X210811226Y-105986422D01*
X210627960Y-105758485D01*
X210403911Y-105570485D01*
X210147612Y-105429584D01*
X209868827Y-105341148D01*
X209578175Y-105308546D01*
X209557251Y-105308400D01*
X209542749Y-105308400D01*
X209251669Y-105336941D01*
X208971677Y-105421475D01*
X208713436Y-105558784D01*
X208486784Y-105743637D01*
X208476819Y-105755681D01*
X208449827Y-105669359D01*
X208350926Y-105519966D01*
X208214392Y-105403958D01*
X208050989Y-105330481D01*
X207928811Y-105313156D01*
X207936704Y-105311765D01*
X208134077Y-105235208D01*
X208312822Y-105121773D01*
X208466130Y-104975780D01*
X208588161Y-104802790D01*
X208674268Y-104609392D01*
X208721170Y-104402952D01*
X208724546Y-104161150D01*
X208683426Y-103953481D01*
X208602754Y-103757753D01*
X208485600Y-103581423D01*
X208336428Y-103431207D01*
X208160921Y-103312825D01*
X207965761Y-103230788D01*
X207758384Y-103188219D01*
X207546689Y-103186741D01*
X207338738Y-103226410D01*
X207142452Y-103305715D01*
X206965308Y-103421634D01*
X206880177Y-103505000D01*
X205994000Y-103505000D01*
X204470000Y-103505000D01*
X204399936Y-103511869D01*
X204329830Y-103518003D01*
X204325982Y-103519120D01*
X204321993Y-103519512D01*
X204254581Y-103539864D01*
X204215643Y-103551177D01*
X204197444Y-103351190D01*
X204114866Y-103070615D01*
X203979363Y-102811422D01*
X203796097Y-102583485D01*
X203572048Y-102395485D01*
X203315749Y-102254584D01*
X203036964Y-102166148D01*
X202746312Y-102133546D01*
X202725388Y-102133400D01*
X202404612Y-102133400D01*
X202113532Y-102161941D01*
X201833540Y-102246475D01*
X201575299Y-102383784D01*
X201348647Y-102568637D01*
X201162216Y-102793994D01*
X201116215Y-102879070D01*
X201033928Y-102796207D01*
X200858421Y-102677825D01*
X200663261Y-102595788D01*
X200455884Y-102553219D01*
X200333358Y-102552363D01*
X200318900Y-102540487D01*
X200265005Y-102495264D01*
X200261497Y-102493335D01*
X200258397Y-102490789D01*
X200196331Y-102457510D01*
X200134684Y-102423619D01*
X200130863Y-102422407D01*
X200127333Y-102420514D01*
X200060035Y-102399939D01*
X199992929Y-102378652D01*
X199988945Y-102378205D01*
X199985115Y-102377034D01*
X199917553Y-102370171D01*
X199816792Y-102284558D01*
X199653389Y-102211081D01*
X199476000Y-102185928D01*
X197526000Y-102185928D01*
X197422957Y-102194303D01*
X197251959Y-102247773D01*
X197102566Y-102346674D01*
X196986558Y-102483208D01*
X196913081Y-102646611D01*
X196887928Y-102824000D01*
X196887928Y-103424000D01*
X196896303Y-103527043D01*
X196929122Y-103632000D01*
X195199000Y-103632000D01*
X195128894Y-103638873D01*
X195058829Y-103645004D01*
X195054985Y-103646120D01*
X195050993Y-103646512D01*
X194983552Y-103666873D01*
X194916018Y-103686494D01*
X194912462Y-103688337D01*
X194908624Y-103689496D01*
X194846467Y-103722545D01*
X194783985Y-103754933D01*
X194780852Y-103757433D01*
X194777316Y-103759314D01*
X194771000Y-103764465D01*
X194771000Y-102909942D01*
X194796807Y-102927879D01*
X194990802Y-103012633D01*
X195197564Y-103058093D01*
X195409219Y-103062526D01*
X195617704Y-103025765D01*
X195815077Y-102949208D01*
X195993822Y-102835773D01*
X196147130Y-102689780D01*
X196269161Y-102516790D01*
X196355268Y-102323392D01*
X196402170Y-102116952D01*
X196404074Y-101980555D01*
X196791558Y-101593072D01*
X198001000Y-101593072D01*
X198104043Y-101584697D01*
X198275041Y-101531227D01*
X198424434Y-101432326D01*
X198500266Y-101343076D01*
X198523674Y-101378434D01*
X198660208Y-101494442D01*
X198823611Y-101567919D01*
X199001000Y-101593072D01*
X200501000Y-101593072D01*
X200604043Y-101584697D01*
X200775041Y-101531227D01*
X200924434Y-101432326D01*
X201022193Y-101317269D01*
X201146807Y-101403879D01*
X201340802Y-101488633D01*
X201547564Y-101534093D01*
X201759219Y-101538526D01*
X201967704Y-101501765D01*
X202165077Y-101425208D01*
X202343822Y-101311773D01*
X202497130Y-101165780D01*
X202619161Y-100992790D01*
X202705268Y-100799392D01*
X202752170Y-100592952D01*
X202754074Y-100456555D01*
X203007630Y-100203000D01*
X215965369Y-100203000D01*
X216916000Y-101153630D01*
X216916000Y-102489000D01*
X216916000Y-109521921D01*
X216778959Y-109564773D01*
X216629566Y-109663674D01*
X216513558Y-109800208D01*
X216440081Y-109963611D01*
X216414928Y-110141000D01*
X216414928Y-111641000D01*
X216423303Y-111744043D01*
X216476773Y-111915041D01*
X216575674Y-112064434D01*
X216664923Y-112140266D01*
X216629566Y-112163674D01*
X216513558Y-112300208D01*
X216440081Y-112463611D01*
X216414928Y-112641000D01*
X216414928Y-114141000D01*
X216423303Y-114244043D01*
X216476773Y-114415041D01*
X216575674Y-114564434D01*
X216712208Y-114680442D01*
X216875611Y-114753919D01*
X216916000Y-114759645D01*
X216916000Y-115313236D01*
X216847054Y-115380753D01*
X216727450Y-115555431D01*
X216644052Y-115750012D01*
X216600037Y-115957087D01*
X216597081Y-116168767D01*
X216635297Y-116376990D01*
X216713230Y-116573825D01*
X216827910Y-116751773D01*
X216974969Y-116904058D01*
X217148807Y-117024879D01*
X217342802Y-117109633D01*
X217549564Y-117155093D01*
X217761219Y-117159526D01*
X217969704Y-117122765D01*
X218167077Y-117046208D01*
X218345822Y-116932773D01*
X218499130Y-116786780D01*
X218621161Y-116613790D01*
X218707268Y-116420392D01*
X218754170Y-116213952D01*
X218757546Y-115972150D01*
X218716426Y-115764481D01*
X218635754Y-115568753D01*
X218518600Y-115392423D01*
X218440000Y-115313272D01*
X218440000Y-114760078D01*
X218577041Y-114717227D01*
X218726434Y-114618326D01*
X218842442Y-114481792D01*
X218915919Y-114318389D01*
X218936534Y-114173000D01*
X219452928Y-114173000D01*
X219452928Y-114427000D01*
X219461303Y-114530043D01*
X219514773Y-114701041D01*
X219613674Y-114850434D01*
X219750208Y-114966442D01*
X219913611Y-115039919D01*
X220091000Y-115065072D01*
X220915297Y-115065072D01*
X220709792Y-115270577D01*
X220519335Y-115211621D01*
X220228462Y-115181049D01*
X219937190Y-115207556D01*
X219656615Y-115290134D01*
X219397422Y-115425637D01*
X219169485Y-115608903D01*
X218981485Y-115832952D01*
X218840584Y-116089251D01*
X218752148Y-116368036D01*
X218719546Y-116658688D01*
X218719400Y-116679612D01*
X218719400Y-117000388D01*
X218747941Y-117291468D01*
X218832475Y-117571460D01*
X218969784Y-117829701D01*
X219154637Y-118056353D01*
X219379994Y-118242784D01*
X219637269Y-118381892D01*
X219916665Y-118468379D01*
X220207538Y-118498951D01*
X220498810Y-118472444D01*
X220779385Y-118389866D01*
X221038578Y-118254363D01*
X221266515Y-118071097D01*
X221454515Y-117847048D01*
X221488555Y-117785127D01*
X221639514Y-117991729D01*
X221855965Y-118190733D01*
X222107081Y-118343686D01*
X222383211Y-118444709D01*
X222398974Y-118447358D01*
X222631000Y-118326217D01*
X222631000Y-116967000D01*
X222611000Y-116967000D01*
X222611000Y-116713000D01*
X222631000Y-116713000D01*
X222631000Y-116693000D01*
X222885000Y-116693000D01*
X222885000Y-116713000D01*
X222905000Y-116713000D01*
X222905000Y-116967000D01*
X222885000Y-116967000D01*
X222885000Y-118326217D01*
X223117026Y-118447358D01*
X223132789Y-118444709D01*
X223408919Y-118343686D01*
X223660035Y-118190733D01*
X223876486Y-117991729D01*
X224026656Y-117786205D01*
X224049784Y-117829701D01*
X224234637Y-118056353D01*
X224459994Y-118242784D01*
X224536000Y-118283880D01*
X224536000Y-119191369D01*
X224536000Y-119191369D01*
G37*
X224536000Y-119191369D02*
X222315369Y-121412000D01*
X214818630Y-121412000D01*
X212755815Y-119349185D01*
X212701400Y-119304487D01*
X212647505Y-119259264D01*
X212643997Y-119257335D01*
X212640897Y-119254789D01*
X212578831Y-119221510D01*
X212517184Y-119187619D01*
X212513363Y-119186407D01*
X212509833Y-119184514D01*
X212442535Y-119163939D01*
X212375429Y-119142652D01*
X212371445Y-119142205D01*
X212367615Y-119141034D01*
X212297627Y-119133924D01*
X212252519Y-119128864D01*
X212254144Y-119127568D01*
X212257684Y-119125686D01*
X212312230Y-119081199D01*
X212367240Y-119037286D01*
X212372814Y-119031787D01*
X212372931Y-119031693D01*
X212373020Y-119031585D01*
X212374815Y-119029815D01*
X213598332Y-117806297D01*
X213813688Y-117830454D01*
X213834612Y-117830600D01*
X214155388Y-117830600D01*
X214446468Y-117802059D01*
X214726460Y-117717525D01*
X214984701Y-117580216D01*
X215211353Y-117395363D01*
X215397784Y-117170006D01*
X215536892Y-116912731D01*
X215623379Y-116633335D01*
X215653951Y-116342462D01*
X215627444Y-116051190D01*
X215544866Y-115770615D01*
X215409363Y-115511422D01*
X215226097Y-115283485D01*
X215002048Y-115095485D01*
X214942413Y-115062700D01*
X214984701Y-115040216D01*
X215211353Y-114855363D01*
X215397784Y-114630006D01*
X215536892Y-114372731D01*
X215623379Y-114093335D01*
X215653951Y-113802462D01*
X215627444Y-113511190D01*
X215544866Y-113230615D01*
X215409363Y-112971422D01*
X215226097Y-112743485D01*
X215002048Y-112555485D01*
X214940127Y-112521444D01*
X215146729Y-112370486D01*
X215345733Y-112154035D01*
X215498686Y-111902919D01*
X215599709Y-111626789D01*
X215602358Y-111611026D01*
X215481217Y-111379000D01*
X214122000Y-111379000D01*
X214122000Y-111399000D01*
X213868000Y-111399000D01*
X213868000Y-111379000D01*
X212508783Y-111379000D01*
X212387642Y-111611026D01*
X212390291Y-111626789D01*
X212491314Y-111902919D01*
X212644267Y-112154035D01*
X212843271Y-112370486D01*
X213048794Y-112520656D01*
X213005299Y-112543784D01*
X212778647Y-112728637D01*
X212592216Y-112953994D01*
X212453108Y-113211269D01*
X212366621Y-113490665D01*
X212336049Y-113781538D01*
X212362556Y-114072810D01*
X212445134Y-114353385D01*
X212580637Y-114612578D01*
X212763903Y-114840515D01*
X212987952Y-115028515D01*
X213047586Y-115061299D01*
X213005299Y-115083784D01*
X212778647Y-115268637D01*
X212592216Y-115493994D01*
X212453108Y-115751269D01*
X212366621Y-116030665D01*
X212336049Y-116321538D01*
X212362556Y-116612810D01*
X212424862Y-116824507D01*
X211520370Y-117729000D01*
X203258452Y-117729000D01*
X203296460Y-117717525D01*
X203554701Y-117580216D01*
X203781353Y-117395363D01*
X203967784Y-117170006D01*
X204106892Y-116912731D01*
X204193379Y-116633335D01*
X204223951Y-116342462D01*
X204197444Y-116051190D01*
X204114866Y-115770615D01*
X203979363Y-115511422D01*
X203796097Y-115283485D01*
X203572048Y-115095485D01*
X203512413Y-115062700D01*
X203554701Y-115040216D01*
X203781353Y-114855363D01*
X203967784Y-114630006D01*
X204106892Y-114372731D01*
X204193379Y-114093335D01*
X204223951Y-113802462D01*
X204217155Y-113727785D01*
X205455185Y-114965815D01*
X205509599Y-115010512D01*
X205563495Y-115055736D01*
X205567002Y-115057664D01*
X205570103Y-115060211D01*
X205632203Y-115093509D01*
X205682758Y-115121302D01*
X205748774Y-115247578D01*
X205932040Y-115475515D01*
X206156089Y-115663515D01*
X206412388Y-115804416D01*
X206691173Y-115892852D01*
X206981825Y-115925454D01*
X207002749Y-115925600D01*
X207017251Y-115925600D01*
X207308331Y-115897059D01*
X207588323Y-115812525D01*
X207846564Y-115675216D01*
X208073216Y-115490363D01*
X208259647Y-115265006D01*
X208279088Y-115229050D01*
X208288774Y-115247578D01*
X208472040Y-115475515D01*
X208696089Y-115663515D01*
X208952388Y-115804416D01*
X209231173Y-115892852D01*
X209521825Y-115925454D01*
X209542749Y-115925600D01*
X209557251Y-115925600D01*
X209848331Y-115897059D01*
X210128323Y-115812525D01*
X210386564Y-115675216D01*
X210613216Y-115490363D01*
X210799647Y-115265006D01*
X210938755Y-115007731D01*
X211025242Y-114728335D01*
X211055814Y-114437462D01*
X211029307Y-114146190D01*
X210946729Y-113865615D01*
X210811226Y-113606422D01*
X210627960Y-113378485D01*
X210403911Y-113190485D01*
X210344276Y-113157700D01*
X210386564Y-113135216D01*
X210613216Y-112950363D01*
X210799647Y-112725006D01*
X210938755Y-112467731D01*
X211025242Y-112188335D01*
X211055814Y-111897462D01*
X211029307Y-111606190D01*
X210946729Y-111325615D01*
X210811226Y-111066422D01*
X210627960Y-110838485D01*
X210403911Y-110650485D01*
X210344276Y-110617700D01*
X210386564Y-110595216D01*
X210613216Y-110410363D01*
X210799647Y-110185006D01*
X210841904Y-110106852D01*
X210890113Y-110102125D01*
X210960170Y-110095996D01*
X210964012Y-110094879D01*
X210968007Y-110094488D01*
X211035459Y-110074122D01*
X211102982Y-110054506D01*
X211106537Y-110052662D01*
X211110376Y-110051504D01*
X211172553Y-110018443D01*
X211235014Y-109986067D01*
X211238144Y-109983568D01*
X211241684Y-109981686D01*
X211296230Y-109937199D01*
X211351240Y-109893286D01*
X211356814Y-109887787D01*
X211356931Y-109887693D01*
X211357020Y-109887585D01*
X211358815Y-109885815D01*
X212353319Y-108891310D01*
X212362556Y-108992810D01*
X212445134Y-109273385D01*
X212580637Y-109532578D01*
X212763903Y-109760515D01*
X212987952Y-109948515D01*
X213049872Y-109982555D01*
X212843271Y-110133514D01*
X212644267Y-110349965D01*
X212491314Y-110601081D01*
X212390291Y-110877211D01*
X212387642Y-110892974D01*
X212508783Y-111125000D01*
X213868000Y-111125000D01*
X213868000Y-111105000D01*
X214122000Y-111105000D01*
X214122000Y-111125000D01*
X215481217Y-111125000D01*
X215602358Y-110892974D01*
X215599709Y-110877211D01*
X215498686Y-110601081D01*
X215345733Y-110349965D01*
X215146729Y-110133514D01*
X214941205Y-109983343D01*
X214984701Y-109960216D01*
X215211353Y-109775363D01*
X215397784Y-109550006D01*
X215536892Y-109292731D01*
X215623379Y-109013335D01*
X215653951Y-108722462D01*
X215627444Y-108431190D01*
X215544866Y-108150615D01*
X215409363Y-107891422D01*
X215226097Y-107663485D01*
X215002048Y-107475485D01*
X214942413Y-107442700D01*
X214984701Y-107420216D01*
X215211353Y-107235363D01*
X215397784Y-107010006D01*
X215536892Y-106752731D01*
X215623379Y-106473335D01*
X215653951Y-106182462D01*
X215627444Y-105891190D01*
X215544866Y-105610615D01*
X215409363Y-105351422D01*
X215226097Y-105123485D01*
X215002048Y-104935485D01*
X214942413Y-104902700D01*
X214984701Y-104880216D01*
X215211353Y-104695363D01*
X215397784Y-104470006D01*
X215536892Y-104212731D01*
X215623379Y-103933335D01*
X215653951Y-103642462D01*
X215627444Y-103351190D01*
X215544866Y-103070615D01*
X215409363Y-102811422D01*
X215226097Y-102583485D01*
X215002048Y-102395485D01*
X214745749Y-102254584D01*
X214466964Y-102166148D01*
X214176312Y-102133546D01*
X214155388Y-102133400D01*
X213834612Y-102133400D01*
X213543532Y-102161941D01*
X213263540Y-102246475D01*
X213005299Y-102383784D01*
X212778647Y-102568637D01*
X212592216Y-102793994D01*
X212453108Y-103051269D01*
X212366621Y-103330665D01*
X212336049Y-103621538D01*
X212362556Y-103912810D01*
X212445134Y-104193385D01*
X212580637Y-104452578D01*
X212763903Y-104680515D01*
X212987952Y-104868515D01*
X213047586Y-104901299D01*
X213005299Y-104923784D01*
X212778647Y-105108637D01*
X212592216Y-105333994D01*
X212453108Y-105591269D01*
X212366621Y-105870665D01*
X212336049Y-106161538D01*
X212362556Y-106452810D01*
X212424862Y-106664507D01*
X210700572Y-108388797D01*
X210627960Y-108298485D01*
X210403911Y-108110485D01*
X210344276Y-108077700D01*
X210386564Y-108055216D01*
X210613216Y-107870363D01*
X210799647Y-107645006D01*
X210938755Y-107387731D01*
X211025242Y-107108335D01*
X211055814Y-106817462D01*
X211029307Y-106526190D01*
X210946729Y-106245615D01*
X210811226Y-105986422D01*
X210627960Y-105758485D01*
X210403911Y-105570485D01*
X210147612Y-105429584D01*
X209868827Y-105341148D01*
X209578175Y-105308546D01*
X209557251Y-105308400D01*
X209542749Y-105308400D01*
X209251669Y-105336941D01*
X208971677Y-105421475D01*
X208713436Y-105558784D01*
X208486784Y-105743637D01*
X208476819Y-105755681D01*
X208449827Y-105669359D01*
X208350926Y-105519966D01*
X208214392Y-105403958D01*
X208050989Y-105330481D01*
X207928811Y-105313156D01*
X207936704Y-105311765D01*
X208134077Y-105235208D01*
X208312822Y-105121773D01*
X208466130Y-104975780D01*
X208588161Y-104802790D01*
X208674268Y-104609392D01*
X208721170Y-104402952D01*
X208724546Y-104161150D01*
X208683426Y-103953481D01*
X208602754Y-103757753D01*
X208485600Y-103581423D01*
X208336428Y-103431207D01*
X208160921Y-103312825D01*
X207965761Y-103230788D01*
X207758384Y-103188219D01*
X207546689Y-103186741D01*
X207338738Y-103226410D01*
X207142452Y-103305715D01*
X206965308Y-103421634D01*
X206880177Y-103505000D01*
X205994000Y-103505000D01*
X204470000Y-103505000D01*
X204399936Y-103511869D01*
X204329830Y-103518003D01*
X204325982Y-103519120D01*
X204321993Y-103519512D01*
X204254581Y-103539864D01*
X204215643Y-103551177D01*
X204197444Y-103351190D01*
X204114866Y-103070615D01*
X203979363Y-102811422D01*
X203796097Y-102583485D01*
X203572048Y-102395485D01*
X203315749Y-102254584D01*
X203036964Y-102166148D01*
X202746312Y-102133546D01*
X202725388Y-102133400D01*
X202404612Y-102133400D01*
X202113532Y-102161941D01*
X201833540Y-102246475D01*
X201575299Y-102383784D01*
X201348647Y-102568637D01*
X201162216Y-102793994D01*
X201116215Y-102879070D01*
X201033928Y-102796207D01*
X200858421Y-102677825D01*
X200663261Y-102595788D01*
X200455884Y-102553219D01*
X200333358Y-102552363D01*
X200318900Y-102540487D01*
X200265005Y-102495264D01*
X200261497Y-102493335D01*
X200258397Y-102490789D01*
X200196331Y-102457510D01*
X200134684Y-102423619D01*
X200130863Y-102422407D01*
X200127333Y-102420514D01*
X200060035Y-102399939D01*
X199992929Y-102378652D01*
X199988945Y-102378205D01*
X199985115Y-102377034D01*
X199917553Y-102370171D01*
X199816792Y-102284558D01*
X199653389Y-102211081D01*
X199476000Y-102185928D01*
X197526000Y-102185928D01*
X197422957Y-102194303D01*
X197251959Y-102247773D01*
X197102566Y-102346674D01*
X196986558Y-102483208D01*
X196913081Y-102646611D01*
X196887928Y-102824000D01*
X196887928Y-103424000D01*
X196896303Y-103527043D01*
X196929122Y-103632000D01*
X195199000Y-103632000D01*
X195128894Y-103638873D01*
X195058829Y-103645004D01*
X195054985Y-103646120D01*
X195050993Y-103646512D01*
X194983552Y-103666873D01*
X194916018Y-103686494D01*
X194912462Y-103688337D01*
X194908624Y-103689496D01*
X194846467Y-103722545D01*
X194783985Y-103754933D01*
X194780852Y-103757433D01*
X194777316Y-103759314D01*
X194771000Y-103764465D01*
X194771000Y-102909942D01*
X194796807Y-102927879D01*
X194990802Y-103012633D01*
X195197564Y-103058093D01*
X195409219Y-103062526D01*
X195617704Y-103025765D01*
X195815077Y-102949208D01*
X195993822Y-102835773D01*
X196147130Y-102689780D01*
X196269161Y-102516790D01*
X196355268Y-102323392D01*
X196402170Y-102116952D01*
X196404074Y-101980555D01*
X196791558Y-101593072D01*
X198001000Y-101593072D01*
X198104043Y-101584697D01*
X198275041Y-101531227D01*
X198424434Y-101432326D01*
X198500266Y-101343076D01*
X198523674Y-101378434D01*
X198660208Y-101494442D01*
X198823611Y-101567919D01*
X199001000Y-101593072D01*
X200501000Y-101593072D01*
X200604043Y-101584697D01*
X200775041Y-101531227D01*
X200924434Y-101432326D01*
X201022193Y-101317269D01*
X201146807Y-101403879D01*
X201340802Y-101488633D01*
X201547564Y-101534093D01*
X201759219Y-101538526D01*
X201967704Y-101501765D01*
X202165077Y-101425208D01*
X202343822Y-101311773D01*
X202497130Y-101165780D01*
X202619161Y-100992790D01*
X202705268Y-100799392D01*
X202752170Y-100592952D01*
X202754074Y-100456555D01*
X203007630Y-100203000D01*
X215965369Y-100203000D01*
X216916000Y-101153630D01*
X216916000Y-102489000D01*
X216916000Y-109521921D01*
X216778959Y-109564773D01*
X216629566Y-109663674D01*
X216513558Y-109800208D01*
X216440081Y-109963611D01*
X216414928Y-110141000D01*
X216414928Y-111641000D01*
X216423303Y-111744043D01*
X216476773Y-111915041D01*
X216575674Y-112064434D01*
X216664923Y-112140266D01*
X216629566Y-112163674D01*
X216513558Y-112300208D01*
X216440081Y-112463611D01*
X216414928Y-112641000D01*
X216414928Y-114141000D01*
X216423303Y-114244043D01*
X216476773Y-114415041D01*
X216575674Y-114564434D01*
X216712208Y-114680442D01*
X216875611Y-114753919D01*
X216916000Y-114759645D01*
X216916000Y-115313236D01*
X216847054Y-115380753D01*
X216727450Y-115555431D01*
X216644052Y-115750012D01*
X216600037Y-115957087D01*
X216597081Y-116168767D01*
X216635297Y-116376990D01*
X216713230Y-116573825D01*
X216827910Y-116751773D01*
X216974969Y-116904058D01*
X217148807Y-117024879D01*
X217342802Y-117109633D01*
X217549564Y-117155093D01*
X217761219Y-117159526D01*
X217969704Y-117122765D01*
X218167077Y-117046208D01*
X218345822Y-116932773D01*
X218499130Y-116786780D01*
X218621161Y-116613790D01*
X218707268Y-116420392D01*
X218754170Y-116213952D01*
X218757546Y-115972150D01*
X218716426Y-115764481D01*
X218635754Y-115568753D01*
X218518600Y-115392423D01*
X218440000Y-115313272D01*
X218440000Y-114760078D01*
X218577041Y-114717227D01*
X218726434Y-114618326D01*
X218842442Y-114481792D01*
X218915919Y-114318389D01*
X218936534Y-114173000D01*
X219452928Y-114173000D01*
X219452928Y-114427000D01*
X219461303Y-114530043D01*
X219514773Y-114701041D01*
X219613674Y-114850434D01*
X219750208Y-114966442D01*
X219913611Y-115039919D01*
X220091000Y-115065072D01*
X220915297Y-115065072D01*
X220709792Y-115270577D01*
X220519335Y-115211621D01*
X220228462Y-115181049D01*
X219937190Y-115207556D01*
X219656615Y-115290134D01*
X219397422Y-115425637D01*
X219169485Y-115608903D01*
X218981485Y-115832952D01*
X218840584Y-116089251D01*
X218752148Y-116368036D01*
X218719546Y-116658688D01*
X218719400Y-116679612D01*
X218719400Y-117000388D01*
X218747941Y-117291468D01*
X218832475Y-117571460D01*
X218969784Y-117829701D01*
X219154637Y-118056353D01*
X219379994Y-118242784D01*
X219637269Y-118381892D01*
X219916665Y-118468379D01*
X220207538Y-118498951D01*
X220498810Y-118472444D01*
X220779385Y-118389866D01*
X221038578Y-118254363D01*
X221266515Y-118071097D01*
X221454515Y-117847048D01*
X221488555Y-117785127D01*
X221639514Y-117991729D01*
X221855965Y-118190733D01*
X222107081Y-118343686D01*
X222383211Y-118444709D01*
X222398974Y-118447358D01*
X222631000Y-118326217D01*
X222631000Y-116967000D01*
X222611000Y-116967000D01*
X222611000Y-116713000D01*
X222631000Y-116713000D01*
X222631000Y-116693000D01*
X222885000Y-116693000D01*
X222885000Y-116713000D01*
X222905000Y-116713000D01*
X222905000Y-116967000D01*
X222885000Y-116967000D01*
X222885000Y-118326217D01*
X223117026Y-118447358D01*
X223132789Y-118444709D01*
X223408919Y-118343686D01*
X223660035Y-118190733D01*
X223876486Y-117991729D01*
X224026656Y-117786205D01*
X224049784Y-117829701D01*
X224234637Y-118056353D01*
X224459994Y-118242784D01*
X224536000Y-118283880D01*
X224536000Y-119191369D01*
M02*
